<svg width="4009" height="2931" viewBox="0 0 4009 2931" fill="none" xmlns="http://www.w3.org/2000/svg">
<path d="M863.629 314.664C884.131 364.876 865.089 411.724 876.251 472.573C903.082 618.848 1061.46 717.765 1034.25 809.057C1006.47 902.242 1245.75 1009.5 1534.75 982.5C1823.75 955.5 2293.75 879.934 2547.25 943.5C2800.75 1007.07 3041.3 982.33 3073.75 751.838C3106.2 521.345 3201.03 982.394 3316.41 1007.07C3459.9 1037.75 3571.61 799.959 3708.12 853.883C3828.69 901.524 3910.59 1028.51 3921.29 1161.53C3931.99 1294.54 3876.94 1429.61 3787.02 1527.64C3707.72 1614.09 3603.5 2263.09 3494.03 2297.17C3473.83 2303.46 3478.3 2299.51 3433.51 2308.7C3274.93 2341.21 3215.95 2463.32 3157.8 2474.35C3033.93 2497.78 3157.8 2387.17 2829.99 2365.46C2502.18 2343.74 2037.97 2445.27 1721.75 2436C1405.53 2426.73 1063.93 2215.43 1063.93 2215.43C1063.93 2215.43 624.602 942.511 567.919 751.838C529.143 621.48 436.599 619.756 421.251 505.519C402.305 364.624 504.463 222.418 636.045 175.754C767.627 129.091 916.918 166.944 1027.98 250.208C1082.26 290.861 837.833 251.424 863.629 314.664Z" fill="#16AD60"/>
</svg>
