<svg width="3940" height="2225" viewBox="0 0 3940 2225" fill="none" xmlns="http://www.w3.org/2000/svg">
<path d="M3370.51 1708.68C3340.4 1671.88 3351.42 1634.59 3328.96 1588.94C3274.95 1479.19 3094.76 1935.83 3106.08 1863.93C3117.65 1790.54 2853.06 1637.07 2561.86 1680.08C2270.67 1723.09 1802.84 1757.24 1531.6 1728.27C1260.35 1699.3 938.391 1686.83 946.923 1865.55C955.456 2044.26 774.729 1329.14 652.046 1319.21C499.478 1306.86 508.127 1547.3 358.499 1516.64C226.33 1489.55 119.399 1398.81 84.3253 1297.95C49.252 1197.09 81.1718 1089.57 155.524 1007.67C221.099 935.442 210.227 431.233 316.206 396.704C335.76 390.334 331.9 393.695 376.12 383.208C532.702 346.08 578.235 278.741 635.821 265.805C758.472 238.304 820.41 275.544 1192.5 383.208C1564.59 490.872 1938.63 280.443 2300 411.343C2661.37 542.242 2938 323.679 2938 323.679C2938 323.679 3501.59 1210.2 3594.23 1351.58C3657.58 1448.23 3752.71 1442.39 3789.14 1528.53C3834.1 1634.77 3755.21 1751.4 3628.86 1797.25C3502.51 1843.11 3342.69 1825.73 3213.81 1770.67C3150.84 1743.8 3408.4 1755.03 3370.51 1708.68Z" fill="#16AD60"/>
</svg>
