<svg width="50" height="50" viewBox="0 0 50 50" fill="none" xmlns="http://www.w3.org/2000/svg">
<path d="M39.1559 1C34.9418 1 31.4123 3.6266 29.9852 7.26203L23.9435 9.21513C23.9395 9.21644 23.9355 9.21775 23.9314 9.21907C22.9013 9.56238 21.9509 10.1498 21.183 10.9178L2.23363 29.8669C0.588789 31.5118 0.588789 34.1884 2.23363 35.8333L14.1666 47.7662C14.9891 48.5887 16.0693 48.9998 17.1497 48.9998C18.23 48.9998 19.3106 48.5885 20.133 47.7662L39.0822 28.817C39.8458 28.0534 40.4309 27.1092 40.775 26.0857L43.0048 19.9042C46.5257 18.4028 49 14.9071 49 10.8441C49 5.416 44.5839 1 39.1559 1ZM41.3678 16.1539L40.819 17.6753C39.7121 17.9449 38.568 17.9427 37.4606 17.6685C37.5005 17.434 37.5221 17.1948 37.5221 16.952C37.5221 15.8251 37.0832 14.7657 36.2863 13.9689C34.6375 12.32 31.9687 12.3198 30.3198 13.9689C28.6749 15.6139 28.6749 18.2904 30.3198 19.9354C31.8755 21.4911 34.359 21.5792 36.0198 20.1784C37.2141 20.5806 38.4689 20.7452 39.7385 20.6707L38.1239 25.1467C38.12 25.1575 38.1163 25.1683 38.1126 25.1792C37.9066 25.7973 37.5541 26.3676 37.0935 26.8283L18.1442 45.7774C17.596 46.3257 16.7038 46.3257 16.1554 45.7774L4.22245 33.8446C3.6741 33.2962 3.6741 32.404 4.22245 31.8558L23.1717 12.9065C23.6311 12.4471 24.1996 12.0953 24.8158 11.8891C25.5706 11.6451 33.3215 9.13947 34.0753 8.89582C34.0793 8.8945 34.0833 8.89319 34.0874 8.89188C34.5961 8.72238 35.1474 8.8525 35.5266 9.23154L41.0236 14.7285C41.3993 15.1041 41.5306 15.6491 41.3678 16.1539ZM34.2975 17.9464C33.7477 18.496 32.8583 18.4959 32.3086 17.9464C31.7604 17.398 31.7604 16.5058 32.3086 15.9575C32.8582 15.408 33.7477 15.4079 34.2975 15.9575C34.8471 16.5072 34.8471 17.3966 34.2975 17.9464ZM44.2489 15.6844C44.2415 14.5968 43.8129 13.5399 43.0124 12.7396L37.5154 7.24263C36.5844 6.31169 35.3069 5.88203 34.0369 6.0356C35.3413 4.65635 37.1843 3.8126 39.1558 3.8126C43.033 3.8126 46.1873 6.96691 46.1873 10.8441C46.1874 12.7186 45.4487 14.4227 44.2489 15.6844Z" fill="black" stroke="black" stroke-width="0.5"/>
<path d="M21.6043 29.8126C23.1667 31.375 25.7088 31.375 27.2711 29.8126C28.8335 28.2503 28.8335 25.7081 27.2711 24.1458C27.265 24.1397 27.2589 24.1337 27.2526 24.1279L24.9381 21.8134C24.9383 21.8136 24.9378 21.8132 24.9381 21.8134C24.6619 21.5373 24.2136 21.5366 23.9374 21.8127L17.7709 27.9793L17.2709 27.4792C16.9947 27.2031 16.547 27.2031 16.2708 27.4792C15.9947 27.7554 15.9947 28.2031 16.2708 28.4792L16.7709 28.9793L13.9375 31.8127C13.6613 32.0888 13.6613 32.5366 13.9375 32.8127C14.2136 33.0888 14.6613 33.0888 14.9375 32.8127L17.7709 29.9793L19.6043 31.8127C19.8804 32.0888 20.3282 32.0888 20.6043 31.8127C20.8804 31.5365 20.8804 31.0888 20.6043 30.8126L18.7709 28.9793L19.7709 27.9792L21.6043 29.8126ZM26.2708 25.1462C26.2762 25.1516 26.2817 25.1569 26.2872 25.162C27.2821 26.1743 27.2767 27.807 26.2711 28.8126C25.2602 29.8235 23.6153 29.8235 22.6043 28.8126L20.771 26.9792L24.4374 23.3128L26.2708 25.1462Z" fill="#2EB672"/>
<path fill-rule="evenodd" clip-rule="evenodd" d="M27.5786 23.791C27.5871 23.799 27.5951 23.8068 27.6026 23.8143C29.348 25.5597 29.348 28.3987 27.6026 30.1441C25.8572 31.8895 23.0183 31.8895 21.2729 30.1441L19.7709 28.6421L19.4338 28.9793L20.9357 30.4812C21.3949 30.9404 21.3949 31.6849 20.9357 32.1441C20.4765 32.6033 19.732 32.6033 19.2728 32.1441L17.7709 30.6422L15.2689 33.1441C14.8097 33.6033 14.0652 33.6033 13.606 33.1441C13.1468 32.6849 13.1468 31.9404 13.606 31.4812L16.1079 28.9793L15.9394 28.8107C15.4802 28.3515 15.4802 27.607 15.9394 27.1478C16.3986 26.6886 17.1431 26.6886 17.6023 27.1478L17.7709 27.3164L23.606 21.4813C24.0652 21.0221 24.8097 21.0221 25.2689 21.4813C25.2706 21.4829 25.2721 21.4845 25.2736 21.486L27.5786 23.791ZM26.9397 24.4773C26.9372 24.4748 26.9354 24.473 26.9342 24.472L26.9275 24.4658L24.6066 22.1449C24.6055 22.1438 24.6045 22.1427 24.6035 22.1417C24.5102 22.0511 24.3611 22.052 24.2689 22.1442L17.7709 28.6422L16.9394 27.8107C16.8463 27.7176 16.6954 27.7176 16.6023 27.8107C16.5092 27.9038 16.5092 28.0547 16.6023 28.1478L17.4338 28.9793L14.2689 32.1441C14.1758 32.2372 14.1758 32.3882 14.2689 32.4812C14.362 32.5743 14.5129 32.5743 14.606 32.4812L17.7709 29.3164L19.9357 31.4812C20.0288 31.5743 20.1798 31.5743 20.2728 31.4812C20.3659 31.3881 20.3659 31.2372 20.2728 31.1441L18.108 28.9793L19.7709 27.3163L21.9358 29.4812C23.3151 30.8604 25.5604 30.8604 26.9397 29.4812C28.319 28.1019 28.319 25.8565 26.9397 24.4773ZM26.6149 24.8268L26.6215 24.8334C27.7966 26.029 27.7902 27.9564 26.6026 29.144C25.4086 30.338 23.4669 30.338 22.2729 29.144L20.108 26.9792L24.4374 22.6499L26.6022 24.8147C26.6036 24.8161 26.6055 24.8179 26.6081 24.8204L26.6149 24.8268ZM25.9584 25.4962C25.9523 25.4904 25.9459 25.4842 25.9393 25.4776L24.4374 23.9757L21.4339 26.9792L22.9358 28.4811C23.7637 29.309 25.1118 29.309 25.9396 28.4811C26.7612 27.6595 26.7675 26.3255 25.9584 25.4962Z" fill="#2EB672"/>
</svg>
