<svg width="32" height="32" viewBox="0 0 32 32" fill="none" xmlns="http://www.w3.org/2000/svg">
<path d="M21.0908 16L30.9457 6.1451C32.3514 4.73931 32.3514 2.46013 30.9457 1.05434C29.5398 -0.351447 27.2608 -0.351447 25.8549 1.05434L16 10.9092L6.1451 1.05434C4.73931 -0.351447 2.46013 -0.351447 1.05434 1.05434C-0.351447 2.46013 -0.351447 4.73931 1.05434 6.1451L10.9092 16L1.05434 25.8549C-0.351447 27.2607 -0.351447 29.5399 1.05434 30.9457C1.75723 31.6485 2.67846 32 3.59968 32C4.52091 32 5.4422 31.6486 6.14502 30.9457L16 21.0908L25.8549 30.9457C26.5578 31.6485 27.479 32 28.4002 32C29.3215 32 30.2427 31.6486 30.9456 30.9457C32.3514 29.5399 32.3514 27.2607 30.9456 25.8549L21.0908 16Z" fill="#F4F4F4"/>
</svg>
