<svg width="107" height="107" viewBox="0 0 107 107" fill="none" xmlns="http://www.w3.org/2000/svg">
<path fill-rule="evenodd" clip-rule="evenodd" d="M77.6134 26.0382C82.6682 26.7514 87.7831 28.4779 90.7746 32.4972C93.9938 36.8018 94.2091 42.9495 92.8236 49.1246C91.4142 55.4062 88.237 62.2755 83.8732 68.5871C75.24 81.074 61.3067 92.2431 46.0029 91.4526C45.1425 91.4083 41.3237 91.1593 36.6866 89.7114C32.064 88.268 26.4414 85.5743 22.1898 80.5171C16.5768 73.8432 16.1988 66.4071 15.9717 61.941L15.9659 61.8265C15.1464 45.7381 24.234 34.6701 27.0469 31.5223C32.2922 25.6434 39.9884 20.1521 47.8358 17.0198C55.5678 13.9335 64.1677 12.8732 70.6323 17.0652L70.6352 17.0671C74.3032 19.4529 76.3811 22.9779 77.6134 26.0382ZM86.7488 35.4962C84.7825 32.8526 80.7963 31.3837 75.5338 30.8414C74.5572 30.7408 73.729 30.08 73.4139 29.1501C72.4328 26.2547 70.8065 23.1677 67.8996 21.2763C63.5158 18.4346 56.9313 18.7944 49.6967 21.6821C42.5771 24.5239 35.5241 29.5611 30.792 34.8652L30.7906 34.8667C28.2328 37.7289 20.2632 47.512 20.9794 61.5711C21.2062 66.0238 21.5506 71.9579 26.0317 77.286C29.4486 81.3504 34.087 83.6406 38.1829 84.9196C42.2644 86.194 45.622 86.4063 46.2613 86.4393C58.9879 87.0968 71.5031 77.6516 79.744 65.7323C83.8174 59.8408 86.6838 53.559 87.9254 48.0255C89.1906 42.3868 88.6649 38.0567 86.7532 35.502L86.7488 35.4962Z" fill="#1F1F1F"/>
<path fill-rule="evenodd" clip-rule="evenodd" d="M77.9347 27.0395C78.6557 28.2235 78.2804 29.7678 77.0964 30.4888C72.2597 33.4342 67.9264 37.136 64.2616 41.4533C59.9746 46.5401 58.0063 50.9526 56.1339 55.282C56.0721 55.4249 56.0104 55.5678 55.9486 55.7109C54.1297 59.9221 52.2742 64.2183 48.3198 68.5459C44.1424 73.1175 37.0393 78.3825 24.3087 81.094C22.9529 81.3828 21.6197 80.5178 21.3309 79.162C21.0421 77.8061 21.9071 76.4729 23.263 76.1842C34.9709 73.6905 41.1435 68.9575 44.6139 65.1597C47.9935 61.4611 49.5582 57.8418 51.4165 53.5435C51.453 53.459 51.4896 53.3743 51.5263 53.2894C53.4414 48.8612 55.6445 43.8873 60.426 38.2147L60.4315 38.2082C64.4442 33.4803 69.1891 29.4266 74.4854 26.2012C75.6694 25.4802 77.2137 25.8555 77.9347 27.0395Z" fill="#1F1F1F"/>
</svg>
