<svg width="293" height="262" viewBox="0 0 293 262" fill="none" xmlns="http://www.w3.org/2000/svg">
<path d="M255.102 220.359C254.424 214.935 234.765 200.021 225.019 193.242L183.073 218.24C207.365 221.206 255.78 225.782 255.102 220.359Z" fill="#FCFCFC"/>
<path d="M83.3675 86.8512C76.8679 81.2923 63.0299 77.5806 57.7336 85.3428C55.8269 88.1477 55.3016 91.5543 54.8609 94.8761C53.9542 101.588 53.1661 108.833 56.1235 115.468C59.2759 122.62 66.572 127.332 71.9954 133.119C72.8428 134.06 73.597 134.814 74.0461 135.331" fill="white"/>
<path d="M83.3675 86.8512C76.8679 81.2923 63.0299 77.5806 57.7336 85.3428C55.8269 88.1477 55.3016 91.5543 54.8609 94.8761C53.9542 101.588 53.1661 108.833 56.1235 115.468C59.2759 122.62 66.572 127.332 71.9954 133.119C72.8428 134.06 73.597 134.814 74.0461 135.331" stroke="#1F1F1F" stroke-width="6" stroke-linecap="round" stroke-linejoin="round"/>
<path d="M35.2522 154.855C37.3368 148.152 52.751 146.33 75.6987 148.83L102.434 168.142L101.155 201.191L70.2414 200.691L44.9295 179.616C39.1361 172.611 35.7439 163.932 35.2522 154.855Z" fill="white" stroke="#1F1F1F" stroke-width="6" stroke-linecap="round" stroke-linejoin="round"/>
<path d="M225.299 195.454C245.289 206.292 256.737 216.41 254.67 223.054" stroke="#1F1F1F" stroke-width="6" stroke-linecap="round" stroke-linejoin="round"/>
<path fill-rule="evenodd" clip-rule="evenodd" d="M271.313 165.202C269.554 164.587 267.639 164.587 265.881 165.202C260.068 167.473 258.458 177.913 260.034 184.963C261.102 189.903 264.042 194.237 268.237 197.056C270.042 198.217 272.779 199.979 276.567 199.683C282.304 199.242 286.244 194.446 286.735 193.878C295.209 183.294 285.447 161.541 277.185 161.677C275.016 161.736 273.05 163.236 271.313 165.202Z" fill="#FCFCFC" stroke="#1F1F1F" stroke-width="6" stroke-linecap="round" stroke-linejoin="round"/>
<path d="M271.313 165.202C271.1 168.047 271.343 170.908 272.033 173.676C273.728 180.26 277.05 182.226 278.16 187.497C278.728 190.175 278.821 194.183 276.397 199.708" stroke="#1F1F1F" stroke-width="6" stroke-linecap="round" stroke-linejoin="round"/>
<path fill-rule="evenodd" clip-rule="evenodd" d="M24.7189 6.17005C22.4802 4.77159 19.8333 4.17408 17.2109 4.47524C8.46574 5.81414 3 19.7539 3 30.0075C3 32.7615 3.39828 41.9728 10.6266 49.3197C12.7705 51.4891 16.0076 54.7685 21.3463 55.5312C29.422 56.6921 36.3622 51.2942 37.1672 50.6247C52.1493 38.5916 45.3701 5.4667 33.9217 3.13635C30.9643 2.53469 27.7272 3.99222 24.7189 6.17005Z" fill="white" stroke="#1F1F1F" stroke-width="6" stroke-linecap="round" stroke-linejoin="round"/>
<path d="M24.7188 6.16998C23.5362 10.0538 22.984 14.1021 23.0833 18.1607C23.363 27.7872 27.3797 31.5497 27.3203 39.1932C27.278 43.0743 26.1679 48.6502 21.1089 55.5481" stroke="#1F1F1F" stroke-width="6" stroke-linecap="round" stroke-linejoin="round"/>
<path fill-rule="evenodd" clip-rule="evenodd" d="M172.404 12.6102C172.132 10.4399 171.131 8.42629 169.565 6.89875C164.117 1.99229 152.312 5.78865 145.736 11.1358C143.965 12.5763 138.271 17.6608 137.356 26.1602C137.084 28.7024 136.686 32.4649 138.983 36.329C142.465 42.1168 149.584 43.7268 150.414 43.9048C165.972 47.2097 183.683 25.5246 179.166 16.932C178.006 14.7118 175.387 13.3983 172.404 12.6102Z" fill="white" stroke="#1F1F1F" stroke-width="6" stroke-linecap="round" stroke-linejoin="round"/>
<path d="M172.404 12.6103C169.292 13.8874 166.405 15.6555 163.854 17.8472C157.82 23.0672 157.515 27.6178 152.566 31.5667C150.024 33.5665 145.897 35.8037 138.822 36.1511" stroke="#1F1F1F" stroke-width="6" stroke-linecap="round" stroke-linejoin="round"/>
<path d="M255.4 123.186C255.112 129.338 251.993 184.251 206.471 210.046C193.116 217.621 170.982 221.401 170.982 221.401" fill="#FCFCFC"/>
<path d="M170.982 221.401C161.338 218.977 149.61 215.918 139.187 212.681C127.79 209.139 117.028 205.41 106.935 201.606C97.0023 193.567 88.9986 183.403 83.513 171.862C60.6332 124.789 90.9193 74.3258 94.1649 69.0973L255.4 123.186C255.112 129.338 251.993 184.251 206.471 210.046C193.116 217.621 170.982 221.401 170.982 221.401Z" fill="#FCFCFC"/>
<path d="M170.982 221.401C161.338 218.977 149.61 215.918 139.187 212.681C127.79 209.139 117.028 205.41 106.935 201.606C97.0023 193.567 88.9986 183.403 83.513 171.862C60.6332 124.789 90.9193 74.3258 94.1649 69.0973L255.4 123.186C255.112 129.338 251.993 184.251 206.471 210.046C193.116 217.621 170.982 221.401 170.982 221.401Z" stroke="#1F1F1F" stroke-width="6" stroke-linecap="round" stroke-linejoin="round"/>
<path fill-rule="evenodd" clip-rule="evenodd" d="M60.869 160.49L51.0476 173.269L61.9876 180.845L60.869 160.49Z" fill="white" stroke="#1F1F1F" stroke-width="6" stroke-linecap="round" stroke-linejoin="round"/>
<path fill-rule="evenodd" clip-rule="evenodd" d="M85.8675 165.914L62.6402 159.897C62.3762 159.825 62.0986 159.818 61.8312 159.876C61.5638 159.934 61.3144 160.057 61.1046 160.232C60.8947 160.408 60.7305 160.632 60.6261 160.885C60.5216 161.138 60.48 161.413 60.5048 161.685L61.9877 180.845L84.8082 190.166C85.0662 190.264 85.3441 190.298 85.6179 190.264C85.8918 190.23 86.1532 190.13 86.3795 189.972C86.6058 189.814 86.7901 189.604 86.9165 189.358C87.0429 189.113 87.1075 188.841 87.1047 188.565L87.1555 167.549C87.1534 167.172 87.0255 166.807 86.7922 166.51C86.5589 166.214 86.2335 166.004 85.8675 165.914Z" fill="white" stroke="#1F1F1F" stroke-width="6" stroke-linecap="round" stroke-linejoin="round"/>
<path fill-rule="evenodd" clip-rule="evenodd" d="M73.936 187.251C80.7153 190.353 89.7909 194.624 97.2565 197.632C105.832 201.089 114.14 204.197 122.179 206.953L127.187 200.852C127.546 200.443 127.796 199.949 127.915 199.418C128.033 198.886 128.016 198.333 127.865 197.81L122.535 179.387" fill="white"/>
<path d="M73.936 187.251C80.7153 190.353 89.7909 194.624 97.2565 197.632C105.832 201.089 114.14 204.197 122.179 206.953L127.187 200.852C127.546 200.443 127.796 199.949 127.915 199.418C128.033 198.886 128.016 198.333 127.865 197.81L122.535 179.387" stroke="#1F1F1F" stroke-width="6" stroke-linecap="round" stroke-linejoin="round"/>
<path fill-rule="evenodd" clip-rule="evenodd" d="M76.1477 187.912L95.2397 169.092C95.5194 168.812 95.8755 168.622 96.2631 168.545C96.6507 168.469 97.0524 168.508 97.4175 168.659L121.043 178.413C121.33 178.527 121.587 178.706 121.794 178.937C122 179.167 122.15 179.442 122.232 179.74C122.314 180.038 122.326 180.351 122.267 180.655C122.208 180.958 122.079 181.244 121.89 181.489L107.23 200.496" fill="white"/>
<path d="M76.1477 187.912L95.2397 169.092C95.5194 168.812 95.8755 168.622 96.2631 168.545C96.6507 168.469 97.0524 168.508 97.4175 168.659L121.043 178.413C121.33 178.527 121.587 178.706 121.794 178.937C122 179.167 122.15 179.442 122.232 179.74C122.314 180.038 122.326 180.351 122.267 180.655C122.208 180.958 122.079 181.244 121.89 181.489L107.23 200.496" stroke="#1F1F1F" stroke-width="6" stroke-linecap="round" stroke-linejoin="round"/>
<path d="M75.4817 225.659C91.5851 235.656 107.932 241.961 125.86 247.796C143.848 253.46 162.006 256.788 180.781 257.953C201.692 259.322 228.913 249.859 239.358 240.439C249.804 231.018 255.526 222.255 255.526 222.255C158.857 221.154 110.762 206.317 35.2012 155.532C35.5207 162.001 36.4946 168.418 38.1074 174.679C38.2323 175.165 38.36 175.644 38.4905 176.118C44.2791 196.866 57.5013 214.574 75.4817 225.659Z" fill="#FCFCFC" stroke="#1F1F1F" stroke-width="6" stroke-linecap="round" stroke-linejoin="round"/>
<path d="M255.217 120.873C257.342 114.146 223.039 97.3168 178.601 83.2836C134.162 69.2504 96.4157 63.3275 94.2914 70.0544C92.1671 76.7813 126.47 93.6107 170.908 107.644C215.346 121.677 253.093 127.6 255.217 120.873Z" fill="white" stroke="#1F1F1F" stroke-width="6" stroke-linecap="round" stroke-linejoin="round"/>
<path fill-rule="evenodd" clip-rule="evenodd" d="M112.662 84.1479C115.964 81.9639 119.799 80.7217 123.755 80.5549C129.204 80.4193 131.551 81.504 139.508 83.3005C142.44 83.9615 145.677 84.0717 148.304 82.6141C152.677 80.1905 153.88 74.7672 156.159 70.7505C157.854 67.7846 160.752 64.3357 164.54 65.0814C167.93 65.7424 169.438 69.1913 168.591 72.3267C167.786 75.2841 166.311 79.5126 170.853 79.7668C175.396 80.0211 179.743 75.7671 183.107 73.3097C186.782 70.5515 190.28 67.5656 193.581 64.3696C199.055 59.2004 204.868 53.9126 212.224 51.7263C214.562 50.9407 217.062 50.7686 219.486 51.2264C220.693 51.4667 221.824 51.992 222.787 52.7585C223.75 53.525 224.515 54.5105 225.019 55.6328C226.18 58.5903 224.875 61.9884 222.875 64.4543C220.876 66.9202 218.223 68.7591 216.054 71.081C213.885 73.4029 212.147 76.4874 212.664 79.6143C213.562 85.0377 220.452 87.6053 222.053 92.8677C223.791 98.5792 219.808 101.164 220.732 106.926C221.367 110.934 224.341 116.247 234.892 121.527C214.44 117.998 194.203 113.322 174.277 107.519C142.711 98.2995 124.28 89.7238 117.823 86.6901C115.705 85.6478 113.891 84.7581 112.662 84.1479Z" fill="#FCFCFC" stroke="#1F1F1F" stroke-width="6" stroke-linecap="round" stroke-linejoin="round"/>
</svg>
