<svg width="42" height="38" viewBox="0 0 42 38" fill="none" xmlns="http://www.w3.org/2000/svg">
<path fill-rule="evenodd" clip-rule="evenodd" d="M22.4185 0.132415C26.6022 -0.324774 31.0997 0.314308 33.8147 3.43552C33.8307 3.45388 33.8463 3.47256 33.8615 3.49157C35.0758 5.00757 35.8408 6.83223 36.0814 8.75403C38.3683 9.80528 40.5815 11.3967 41.5197 13.8129L41.5234 13.8227C42.5748 16.5773 41.7698 19.7817 40.2472 22.6554C38.6884 25.5973 36.1917 28.5643 33.2068 31.0812C27.3338 36.0332 18.9607 39.7134 11.4632 37.1743C10.9373 37.0106 9.11657 36.3514 7.07886 35.0154C5.00096 33.653 2.57236 31.504 1.15398 28.3327C-0.714208 24.1563 0.132537 20.3313 0.621632 18.122C0.627801 18.0941 0.633914 18.0665 0.639963 18.0391L0.640338 18.0374C2.45294 9.87852 8.45152 5.61856 10.2589 4.44669M22.4185 0.132415C18.1469 0.599218 13.635 2.25465 10.2589 4.44669L22.4185 0.132415ZM22.8 3.72403C19.0808 4.13045 15.095 5.59568 12.1788 7.48917L12.1778 7.48982C10.6025 8.51113 5.61093 12.0969 4.11462 18.8309C3.62826 21.03 3.04203 23.811 4.39703 26.8401C5.43459 29.16 7.26647 30.8371 9.01209 31.9816C10.7557 33.1248 12.2885 33.6543 12.5152 33.7231C12.5341 33.7288 12.5529 33.7348 12.5716 33.7412C18.34 35.7061 25.4272 32.9434 30.9303 28.3032C33.6366 26.0212 35.8089 23.4013 37.1103 20.9452C38.4462 18.424 38.6938 16.421 38.2043 15.1318C37.6927 13.8212 36.1526 12.618 33.7422 11.676C33.0604 11.4096 32.6083 10.7478 32.6017 10.0067C32.5882 8.47477 32.0663 6.99247 31.1209 5.79871C29.5637 4.03563 26.588 3.31007 22.8 3.72403Z" fill="#1F1F1F"/>
<path fill-rule="evenodd" clip-rule="evenodd" d="M36.0962 9.50092C36.3628 10.4611 35.8116 11.4587 34.865 11.7292C32.2018 12.4901 29.676 13.679 27.3838 15.2506C24.7089 17.1012 23.2116 18.9325 21.7393 20.7787C21.6867 20.8446 21.6341 20.9107 21.5814 20.9769C20.1476 22.7769 18.6322 24.6793 16.0774 26.3012L16.0765 26.3017C13.3613 28.0231 9.13477 29.6488 2.54429 29.2265C1.56283 29.1636 0.817469 28.3055 0.879473 27.31C0.941477 26.3144 1.78737 25.5584 2.76882 25.6213C8.61837 25.9961 12.1061 24.559 14.189 23.2384C16.232 21.9413 17.42 20.4513 18.8977 18.5981C18.9219 18.5678 18.9462 18.5373 18.9705 18.5068C20.4913 16.5998 22.256 14.4249 25.3805 12.2639L25.3862 12.26C27.9946 10.4711 30.8688 9.11795 33.8995 8.25206C34.8461 7.98161 35.8295 8.54074 36.0962 9.50092Z" fill="#1F1F1F"/>
</svg>
