<svg width="258" height="434" viewBox="0 0 258 434" fill="none" xmlns="http://www.w3.org/2000/svg">
<path d="M220.991 203.55C220.252 201.261 218.796 199.27 216.839 197.87C214.882 196.471 212.527 195.739 210.121 195.78C205.701 195.86 198.451 196.22 194.041 196.29L153.441 220.61" fill="white"/>
<path fill-rule="evenodd" clip-rule="evenodd" d="M210.07 192.78C213.118 192.728 216.103 193.657 218.584 195.43C221.064 197.203 222.909 199.726 223.846 202.628L218.136 204.472C217.595 202.795 216.528 201.336 215.094 200.311C213.661 199.286 211.936 198.749 210.174 198.78C208.053 198.818 205.257 198.922 202.404 199.029L202.189 199.037C199.621 199.132 197.017 199.229 194.897 199.274L154.983 223.184L151.9 218.036L193.19 193.303L193.994 193.29C196.16 193.256 199.039 193.15 201.966 193.041L202.22 193.031C205.041 192.926 207.887 192.82 210.067 192.78L210.07 192.78Z" fill="#1F1F1F"/>
<path d="M28.2112 283.47C27.1151 281.329 26.7362 278.892 27.1305 276.518C27.5248 274.145 28.6714 271.962 30.4012 270.29L39.9312 261.08L125.401 230.23" fill="white"/>
<path fill-rule="evenodd" clip-rule="evenodd" d="M41.554 263.684L126.42 233.052L124.383 227.408L38.3084 258.476L28.3164 268.133C26.1242 270.252 24.6709 273.019 24.1711 276.027C23.6714 279.034 24.1515 282.123 25.5407 284.837L30.8817 282.103C30.0786 280.534 29.8011 278.749 30.09 277.01C30.3788 275.272 31.2189 273.672 32.4861 272.447L41.554 263.684Z" fill="#1F1F1F"/>
<path d="M76.2474 24C76.3406 27.3725 76.7293 30.7298 77.4089 34.0323C78.0757 37.2147 79.1407 40.2975 80.578 43.2055C81.9848 46.0362 83.8089 48.6325 85.9871 50.9045C88.1441 53.2125 90.7325 55.3437 93.1965 57.9128C94.438 59.2325 95.5857 60.64 96.6311 62.1245C97.6727 63.6497 98.5751 65.2681 99.3274 66.9596C100.065 68.6299 100.646 70.3672 101.061 72.1484C101.294 72.9908 101.435 73.9174 101.601 74.8102C101.766 75.7031 101.841 76.596 101.908 77.4889C102.344 84.4874 101.23 91.4963 98.6471 98C99.0702 91.1433 99.261 84.3877 98.0332 78.0112C97.463 74.8833 96.4632 71.8522 95.0632 69.0065C93.6542 66.2125 91.8297 63.6554 89.654 61.4254C87.4639 59.1005 84.8671 56.8767 82.5359 54.1223C81.3502 52.7503 80.292 51.2699 79.3751 49.6999C78.8939 48.925 78.4957 48.1079 78.0892 47.2908C77.6826 46.4738 77.3674 45.6061 77.0438 44.7638C74.6243 38.1018 74.3455 30.8329 76.2474 24V24Z" fill="#1F1F1F"/>
<path d="M23.5036 0C23.616 4.00367 24.0845 7.9894 24.9036 11.91C25.7073 15.688 26.9911 19.3477 28.7236 22.8C30.4193 26.1606 32.618 29.2427 35.2436 31.94C37.8436 34.68 40.9636 37.21 43.9336 40.26C45.43 41.8267 46.8135 43.4976 48.0736 45.26C49.329 47.0706 50.4168 48.9919 51.3236 51C52.2126 52.9829 52.9124 55.0454 53.4136 57.16C53.6936 58.16 53.8636 59.26 54.0636 60.32C54.2636 61.38 54.3536 62.44 54.4336 63.5C54.9601 71.8084 53.6171 80.1291 50.5036 87.85C51.0136 79.71 51.2436 71.69 49.7636 64.12C49.0762 60.4067 47.8712 56.8083 46.1836 53.43C44.4852 50.113 42.2861 47.0774 39.6636 44.43C37.0236 41.67 33.8936 39.03 31.0836 35.76C29.6543 34.1313 28.3789 32.3738 27.2736 30.51C26.6936 29.59 26.2136 28.62 25.7236 27.65C25.2336 26.68 24.8536 25.65 24.4636 24.65C21.5471 16.7412 21.2111 8.11171 23.5036 0V0Z" fill="#1F1F1F"/>
<path d="M4.2474 49C4.34064 52.3725 4.72933 55.7298 5.40887 59.0323C6.07567 62.2147 7.14069 65.2975 8.57801 68.2055C9.98484 71.0362 11.8089 73.6325 13.9871 75.9045C16.1441 78.2125 18.7325 80.3437 21.1965 82.9128C22.438 84.2325 23.5857 85.64 24.6311 87.1245C25.6727 88.6497 26.5751 90.2681 27.3274 91.9596C28.065 93.6299 28.6455 95.3672 29.0613 97.1484C29.2936 97.9908 29.4346 98.9174 29.6005 99.8102C29.7665 100.703 29.8411 101.596 29.9075 102.489C30.3443 109.487 29.2302 116.496 26.6471 123C27.0702 116.143 27.261 109.388 26.0332 103.011C25.463 99.8833 24.4632 96.8522 23.0632 94.0065C21.6542 91.2125 19.8297 88.6554 17.654 86.4254C15.4639 84.1005 12.8671 81.8767 10.5359 79.1223C9.35015 77.7503 8.29202 76.2699 7.37506 74.6999C6.89388 73.925 6.49567 73.1079 6.08916 72.2908C5.68264 71.4738 5.36739 70.6061 5.04384 69.7638C2.6243 63.1018 2.34548 55.8329 4.2474 49V49Z" fill="#1F1F1F"/>
<path d="M13.0612 207.47L124.381 422.59C125.397 424.542 126.868 426.221 128.669 427.484C130.471 428.748 132.55 429.559 134.731 429.85C155.22 432.647 176.084 430.318 195.451 423.07L203.051 419.92C221.866 411.342 238.259 398.23 250.761 381.76C252.095 380.011 252.989 377.967 253.366 375.8C253.744 373.633 253.595 371.407 252.931 369.31L179.431 138.52" fill="white"/>
<path fill-rule="evenodd" clip-rule="evenodd" d="M182.29 137.61L255.791 368.405C256.6 370.961 256.782 373.674 256.322 376.315C255.862 378.955 254.773 381.445 253.149 383.577C240.347 400.441 223.561 413.866 204.296 422.65L204.248 422.671L196.552 425.861L196.503 425.88C176.672 433.301 155.31 435.686 134.331 432.823C134.329 432.823 134.327 432.823 134.325 432.822L134.731 429.85L134.335 432.824C134.334 432.824 134.332 432.823 134.331 432.823C131.674 432.468 129.141 431.48 126.947 429.94C124.751 428.4 122.958 426.354 121.72 423.975L121.717 423.969L10.3969 208.849L15.7256 206.091L127.042 421.205C127.043 421.206 127.044 421.207 127.044 421.208C127.838 422.732 128.986 424.042 130.392 425.028C131.8 426.015 133.424 426.649 135.128 426.876L135.137 426.878C155.117 429.605 175.462 427.338 194.351 420.279L201.854 417.169C220.198 408.796 236.18 396.007 248.372 379.946L248.376 379.941C249.418 378.574 250.116 376.978 250.411 375.285C250.706 373.592 250.589 371.854 250.071 370.216C250.071 370.215 250.071 370.216 250.071 370.216L176.573 139.43L182.29 137.61Z" fill="#1F1F1F"/>
<path fill-rule="evenodd" clip-rule="evenodd" d="M250.061 370.215L176.563 139.43L182.28 137.61L255.781 368.405C256.59 370.961 256.772 373.674 256.312 376.315C255.852 378.955 254.763 381.446 253.139 383.577C240.337 400.441 223.551 413.866 204.286 422.65L204.238 422.671L196.542 425.861L196.493 425.88C176.662 433.301 155.3 435.686 134.321 432.823C134.319 432.823 134.317 432.823 134.315 432.822L134.721 429.85L134.325 432.824C134.324 432.824 134.322 432.823 134.321 432.823C131.664 432.468 129.131 431.48 126.937 429.94C124.741 428.4 122.948 426.354 121.71 423.975L121.707 423.969L10.3967 208.849L15.7256 206.091L127.032 421.205C127.033 421.206 127.033 421.207 127.034 421.208C127.827 422.732 128.976 424.042 130.382 425.028C131.789 426.015 133.414 426.649 135.118 426.876L135.127 426.878C155.107 429.605 175.452 427.338 194.341 420.279L201.844 417.169C220.188 408.796 236.17 396.007 248.362 379.946L248.366 379.941C249.408 378.574 250.106 376.978 250.401 375.285C250.696 373.592 250.579 371.853 250.061 370.215C250.061 370.215 250.061 370.215 250.061 370.215Z" fill="#1F1F1F"/>
<path d="M220.991 203.55L253.991 305.98C254.574 307.771 254.695 309.68 254.346 311.531C253.996 313.382 253.187 315.115 251.991 316.57L248.991 320.25C242.346 328.294 234.524 335.29 225.791 341C224.458 341.86 223.125 342.717 221.791 343.57C209.325 351.437 196.316 358.408 182.861 364.43L168.991 370.17C155.226 375.443 141.104 379.73 126.731 383C125.171 383.353 123.621 383.687 122.081 384C111.864 386.141 101.383 386.728 90.9912 385.74L86.2312 385.29C84.3593 385.118 82.5605 384.479 81.0002 383.43C79.4398 382.382 78.1679 380.958 77.3012 379.29L28.2112 283.47L27.8212 282.57C27.7124 282.303 27.6628 282.015 27.6756 281.727C27.6884 281.439 27.7633 281.157 27.8954 280.901C28.0274 280.644 28.2134 280.419 28.4405 280.241C28.6677 280.063 28.9306 279.937 29.2112 279.87C62.9163 272.61 95.8943 262.311 127.741 249.1C159.067 236.019 189.143 220.127 217.601 201.62C217.885 201.435 218.209 201.319 218.547 201.283C218.884 201.247 219.225 201.291 219.542 201.412C219.859 201.533 220.143 201.727 220.37 201.979C220.598 202.231 220.763 202.533 220.851 202.86L220.991 203.55Z" fill="white"/>
<path fill-rule="evenodd" clip-rule="evenodd" d="M218.237 204.784C189.922 223.113 160.023 238.87 128.897 251.868L128.891 251.871C97.2727 264.987 64.5455 275.247 31.1006 282.53L79.9634 377.907C79.9645 377.909 79.9657 377.911 79.9668 377.914C80.6017 379.133 81.5322 380.173 82.6733 380.94C83.8164 381.708 85.1342 382.177 86.5057 382.303L86.5136 382.303L91.2736 382.753L91.2751 382.754C101.366 383.713 111.545 383.143 121.466 381.064L121.474 381.062L121.483 381.06C123 380.752 124.528 380.423 126.066 380.075C140.287 376.84 154.261 372.598 167.881 367.383L181.674 361.675C194.983 355.716 207.851 348.82 220.183 341.038C221.507 340.19 222.832 339.339 224.157 338.484C232.631 332.942 240.222 326.153 246.672 318.347C246.674 318.345 246.676 318.342 246.678 318.339L249.666 314.675L249.673 314.666C250.549 313.6 251.142 312.33 251.398 310.974C251.654 309.618 251.565 308.22 251.138 306.908L251.136 306.9L218.237 204.784ZM218.227 198.3C219.035 198.214 219.852 198.32 220.612 198.609C221.371 198.899 222.051 199.364 222.596 199.967C223.141 200.57 223.535 201.293 223.747 202.077L223.772 202.17L223.898 202.79L256.844 305.053C256.845 305.054 256.845 305.055 256.845 305.056C257.582 307.325 257.737 309.743 257.294 312.088C256.851 314.432 255.826 316.627 254.312 318.471C254.311 318.472 254.31 318.473 254.31 318.474L251.31 322.153L251.304 322.161C244.466 330.438 236.419 337.635 227.433 343.511L227.425 343.516L227.417 343.521C226.081 344.383 224.745 345.242 223.408 346.097L223.4 346.102L223.392 346.107C210.806 354.05 197.671 361.088 184.087 367.168L184.048 367.186L170.102 372.957L170.064 372.972C156.167 378.295 141.908 382.624 127.397 385.925L127.394 385.926C125.815 386.284 124.246 386.621 122.687 386.938C112.178 389.14 101.396 389.743 90.7074 388.727L85.9568 388.278C85.9567 388.278 85.9569 388.278 85.9568 388.278C83.5844 388.06 81.3045 387.249 79.3271 385.92C77.3496 384.592 75.7375 382.787 74.6391 380.673L74.6351 380.666L25.4971 284.752L25.0553 283.732L25.0427 283.701C24.7707 283.033 24.6465 282.315 24.6785 281.594C24.7105 280.874 24.898 280.169 25.2281 279.527C25.5582 278.886 26.0231 278.324 26.5909 277.879C27.1588 277.435 27.8161 277.118 28.5177 276.951L28.5485 276.944L28.5795 276.937C62.1062 269.715 94.9099 259.471 126.588 246.33C157.745 233.32 187.658 217.514 215.963 199.107C216.644 198.663 217.42 198.387 218.227 198.3Z" fill="#1F1F1F"/>
<path d="M7.92122 182.14L6.45122 176.58C5.08605 171.429 5.56777 165.962 7.81276 161.128C10.0577 156.295 13.9243 152.4 18.7412 150.12C37.6812 141.12 115.101 109.12 134.831 102C139.849 100.202 145.337 100.218 150.344 102.044C155.351 103.871 159.56 107.393 162.241 112L165.131 117" fill="white"/>
<path fill-rule="evenodd" clip-rule="evenodd" d="M149.316 104.863C144.969 103.277 140.204 103.263 135.847 104.823C116.196 111.915 38.8717 143.876 20.0288 152.83L20.0247 152.832C15.8413 154.812 12.4833 158.194 10.5336 162.392C8.58387 166.59 8.16551 171.338 9.35112 175.812L10.8216 181.373L5.02088 182.907L3.55132 177.349C2.00661 171.52 2.55168 165.334 5.09193 159.865C7.63187 154.396 12.0062 149.99 17.4557 147.409C36.4956 138.362 114.001 106.328 133.813 99.1782L133.819 99.176C139.496 97.1414 145.707 97.1591 151.372 99.2261C157.038 101.293 161.801 105.279 164.834 110.491L164.839 110.499L167.729 115.499L162.534 118.501L159.648 113.509C159.647 113.507 159.646 113.506 159.645 113.504C157.317 109.506 153.663 106.448 149.316 104.863Z" fill="#1F1F1F"/>
<path d="M103.251 170.09L179.421 138.52C180.21 138.193 180.926 137.713 181.529 137.108C182.132 136.503 182.609 135.785 182.933 134.995C183.258 134.206 183.423 133.359 183.419 132.506C183.415 131.652 183.243 130.807 182.911 130.02C180.765 124.938 176.755 120.871 171.704 118.654C166.652 116.437 160.944 116.239 155.751 118.1C136.471 125 33.8612 167.54 15.3512 176.29C10.3649 178.649 6.4712 182.828 4.47007 187.968C2.46894 193.109 2.51229 198.82 4.59121 203.93C4.91365 204.721 5.38922 205.44 5.99056 206.046C6.59189 206.653 7.30715 207.134 8.0952 207.463C8.88325 207.792 9.72855 207.962 10.5825 207.963C11.4365 207.964 12.2822 207.797 13.0712 207.47L89.2312 175.9L103.251 170.09Z" fill="white"/>
<path fill-rule="evenodd" clip-rule="evenodd" d="M154.74 115.275C160.655 113.156 167.156 113.382 172.909 115.907C178.663 118.432 183.231 123.065 185.675 128.853L182.911 130.02L185.676 128.856C186.161 130.007 186.413 131.243 186.419 132.492C186.424 133.741 186.183 134.979 185.708 136.135C185.234 137.291 184.536 138.341 183.654 139.226C182.772 140.111 181.724 140.813 180.57 141.291L104.4 172.861L90.38 178.671L14.22 210.241C13.0658 210.719 11.8276 210.965 10.5783 210.963C9.32905 210.961 8.0924 210.713 6.9395 210.231C5.78662 209.75 4.74023 209.046 3.86048 208.159C2.98073 207.272 2.28501 206.22 1.81329 205.063L4.59123 203.93L1.81241 205.061C-0.555511 199.241 -0.604884 192.735 1.67444 186.88C3.95376 181.025 8.3887 176.265 14.0682 173.578C32.6656 164.787 135.367 122.209 154.74 115.275ZM7.37 202.799C7.54316 203.223 7.79824 203.609 8.12063 203.934C8.44356 204.259 8.82768 204.518 9.2509 204.695C9.67411 204.871 10.1281 204.963 10.5867 204.963C11.0451 204.964 11.4992 204.874 11.9228 204.698C11.9229 204.698 11.9226 204.699 11.9228 204.698L88.0824 173.129L102.103 167.319L178.272 135.749C178.696 135.573 179.08 135.315 179.404 134.991C179.728 134.666 179.984 134.28 180.158 133.856C180.332 133.432 180.421 132.977 180.419 132.519C180.417 132.06 180.324 131.607 180.146 131.184C178.298 126.81 174.846 123.31 170.498 121.401C166.149 119.493 161.234 119.322 156.763 120.924L156.762 120.925C137.576 127.791 35.0591 170.292 16.6342 179.002M7.37 202.799C5.58009 198.4 5.54277 193.483 7.26571 189.057C8.98853 184.631 12.3414 181.033 16.6342 179.002" fill="#1F1F1F"/>
<path d="M158.411 340.66C156.892 340.651 155.41 340.183 154.161 339.318C152.912 338.452 151.953 337.23 151.411 335.81C150.453 333.258 148.645 331.115 146.291 329.74C144.542 328.758 142.567 328.251 140.561 328.27C139.891 328.268 139.222 328.322 138.561 328.43L118.231 336.14H118.161C115.826 336.898 113.386 337.286 110.931 337.29C107.771 337.459 104.622 336.801 101.795 335.381C98.967 333.961 96.5587 331.827 94.8077 329.192C93.0567 326.556 92.0235 323.509 91.8101 320.352C91.5968 317.195 92.2107 314.037 93.5912 311.19C95.9612 306.19 100.081 304.51 103.721 303.06C107.361 301.61 110.641 300.31 113.721 296.06C114.421 295.049 115.065 294.001 115.651 292.92C117.031 290.47 118.461 287.92 121.931 285.82L122.351 285.57C121.976 285.081 121.702 284.523 121.544 283.927C121.386 283.332 121.348 282.71 121.431 282.1C121.595 281.205 122 280.371 122.603 279.689C123.206 279.007 123.983 278.503 124.851 278.23C125.358 278.063 125.888 277.979 126.421 277.98C128.338 278.127 130.126 279 131.421 280.42C132.189 281.171 132.818 282.051 133.281 283.02C135.457 283.291 137.578 283.895 139.571 284.81C140.95 285.498 142.453 285.902 143.991 286C144.434 285.999 144.876 285.955 145.311 285.87C145.881 285.758 146.437 285.587 146.971 285.36L172.271 274.87C175.227 273.782 178.352 273.223 181.501 273.22C185.397 273.219 189.242 274.104 192.746 275.809C196.249 277.514 199.318 279.993 201.721 283.06C202.282 283.793 202.799 284.557 203.271 285.35L208.761 293.79C209.378 294.728 209.623 295.862 209.449 296.971C209.275 298.08 208.695 299.085 207.821 299.79C207.628 299.944 207.424 300.084 207.211 300.21C206.52 300.616 205.733 300.831 204.931 300.83H204.611C204.556 301.474 204.453 302.112 204.301 302.74C204.301 302.74 203.971 303.96 203.801 304.63C203.711 304.98 203.611 305.39 203.491 305.89C203.301 306.7 202.731 309.46 202.611 310.3C202.518 311.795 202.775 313.291 203.361 314.67C203.819 315.937 203.917 317.305 203.643 318.624C203.369 319.943 202.735 321.16 201.811 322.14C200.456 323.59 198.863 324.797 197.101 325.71C194.605 326.993 191.838 327.662 189.031 327.66C188.491 327.66 188.031 327.66 187.601 327.6C186.845 327.542 186.116 327.29 185.485 326.867C184.854 326.445 184.343 325.867 184.001 325.19C183.811 324.794 183.526 324.45 183.171 324.19C180.451 324.31 173.661 327.28 172.231 328.71C172.159 329.16 172.204 329.622 172.361 330.05C172.596 330.748 172.65 331.494 172.517 332.218C172.384 332.943 172.069 333.621 171.601 334.19C169.155 337.223 165.766 339.352 161.971 340.24C160.809 340.497 159.622 340.627 158.431 340.63L158.411 340.66Z" fill="white"/>
<path d="M181.481 276.21C184.917 276.21 188.308 276.99 191.399 278.492C194.489 279.994 197.198 282.178 199.321 284.88C199.824 285.539 200.288 286.227 200.711 286.94L206.231 295.43C206.444 295.747 206.532 296.132 206.479 296.51C206.425 296.889 206.234 297.234 205.941 297.48L205.691 297.65C205.461 297.787 205.199 297.859 204.931 297.86C204.708 297.859 204.488 297.811 204.285 297.72C204.082 297.628 203.9 297.496 203.751 297.33L201.241 294.55C201.531 295.864 201.689 297.204 201.711 298.55C201.745 299.721 201.641 300.893 201.401 302.04C201.321 302.33 201.171 302.9 200.901 303.93C200.811 304.3 200.701 304.73 200.571 305.26C200.381 306.09 199.771 308.96 199.641 309.96C199.47 311.931 199.779 313.914 200.541 315.74C200.808 316.486 200.864 317.292 200.703 318.068C200.543 318.844 200.172 319.561 199.631 320.14C198.27 321.594 196.621 322.749 194.789 323.532C192.958 324.316 190.983 324.71 188.991 324.69C188.541 324.69 188.151 324.69 187.801 324.69C187.556 324.672 187.319 324.59 187.114 324.454C186.909 324.317 186.743 324.13 186.631 323.91C186.111 322.829 185.245 321.953 184.171 321.42C183.853 321.295 183.512 321.24 183.171 321.26C179.581 321.26 170.171 325.34 169.391 327.53C168.992 328.68 168.992 329.93 169.391 331.08C169.462 331.298 169.478 331.53 169.436 331.756C169.394 331.981 169.296 332.192 169.151 332.37C167.121 334.887 164.303 336.648 161.151 337.37C160.199 337.581 159.227 337.688 158.251 337.69C157.331 337.683 156.434 337.398 155.678 336.874C154.922 336.349 154.341 335.609 154.011 334.75C152.804 331.559 150.533 328.882 147.581 327.17C145.379 325.937 142.895 325.296 140.371 325.31C139.428 325.308 138.488 325.395 137.561 325.57L117.041 333.36C115.003 334.02 112.874 334.357 110.731 334.36C108.249 334.427 105.785 333.92 103.53 332.879C101.275 331.839 99.291 330.292 97.7312 328.36C96.0914 326.081 95.0834 323.409 94.8094 320.615C94.5355 317.821 95.0053 315.004 96.1712 312.45C99.9712 304.36 109.001 307.59 115.991 297.76C118.721 293.92 119.221 290.83 123.311 288.35C123.832 288.032 124.37 287.742 124.921 287.48C125.209 287.343 125.437 287.106 125.564 286.814C125.691 286.522 125.707 286.194 125.611 285.89L125.411 285.29C124.971 283.95 124.071 283.49 124.221 282.55C124.308 282.2 124.483 281.878 124.73 281.615C124.977 281.353 125.287 281.158 125.631 281.05C125.831 280.983 126.04 280.949 126.251 280.95C127.379 281.119 128.41 281.682 129.161 282.54C129.853 283.222 130.38 284.053 130.701 284.97C130.789 285.25 130.961 285.496 131.194 285.675C131.426 285.854 131.708 285.957 132.001 285.97H132.761C137.241 286.4 139.821 288.97 143.831 288.97C144.466 288.967 145.099 288.904 145.721 288.78C146.497 288.629 147.254 288.398 147.981 288.09L173.161 277.65C175.781 276.686 178.55 276.192 181.341 276.19L181.481 276.21ZM181.341 270.19C177.885 270.202 174.458 270.815 171.211 272H171.101H171.001L158.411 277.22L145.821 282.44C145.471 282.591 145.105 282.705 144.731 282.78C144.484 282.83 144.233 282.857 143.981 282.86C142.835 282.732 141.723 282.393 140.701 281.86C138.92 281.071 137.06 280.478 135.151 280.09C134.675 279.366 134.121 278.695 133.501 278.09C132.594 277.1 131.499 276.299 130.28 275.735C129.062 275.17 127.743 274.852 126.401 274.8C125.545 274.8 124.694 274.938 123.881 275.21C122.495 275.662 121.258 276.481 120.3 277.579C119.342 278.678 118.7 280.016 118.441 281.45C118.284 282.401 118.322 283.374 118.551 284.31C116.224 286.222 114.332 288.608 113.001 291.31C112.467 292.298 111.879 293.256 111.241 294.18C108.711 297.74 106.021 298.81 102.621 300.18C98.6712 301.75 93.7612 303.7 90.8812 309.82C89.2325 313.377 88.5678 317.311 88.9565 321.212C89.3452 325.113 90.7731 328.838 93.0912 332C97.0912 337.29 103.601 340.32 110.881 340.32C113.637 340.304 116.373 339.858 118.991 339H119.131L119.271 338.95L139.271 331.37C139.682 331.315 140.097 331.289 140.511 331.29C142.002 331.275 143.471 331.651 144.771 332.38C146.525 333.415 147.87 335.022 148.581 336.93C149.344 338.916 150.69 340.624 152.443 341.829C154.197 343.034 156.274 343.68 158.401 343.68C159.817 343.679 161.229 343.525 162.611 343.22C167.066 342.184 171.047 339.688 173.921 336.13C174.6 335.303 175.09 334.337 175.356 333.301C175.622 332.264 175.658 331.182 175.461 330.13C177.493 329.027 179.635 328.139 181.851 327.48C182.476 328.377 183.293 329.125 184.243 329.668C185.192 330.211 186.251 330.536 187.341 330.62C187.891 330.62 188.461 330.69 189.011 330.69C192.298 330.693 195.538 329.911 198.461 328.41C200.526 327.342 202.393 325.928 203.981 324.23C205.282 322.848 206.175 321.132 206.56 319.273C206.944 317.414 206.806 315.485 206.161 313.7C205.746 312.755 205.541 311.732 205.561 310.7C205.641 310.07 206.171 307.51 206.381 306.57C206.491 306.09 206.591 305.71 206.671 305.38C206.841 304.72 206.961 304.26 207.051 303.94L207.171 303.49C207.716 303.317 208.24 303.082 208.731 302.79C209.012 302.623 209.282 302.439 209.541 302.24L209.611 302.18C211.079 301.015 212.058 299.343 212.356 297.492C212.654 295.642 212.249 293.747 211.221 292.18L206.401 284.77L205.761 283.77C205.236 282.895 204.662 282.05 204.041 281.24C201.356 277.811 197.926 275.039 194.01 273.133C190.094 271.227 185.796 270.238 181.441 270.24L181.341 270.19Z" fill="#1F1F1F"/>
<path d="M124.075 298.934C124.998 298.552 125.437 297.493 125.054 296.569C124.671 295.646 123.612 295.207 122.689 295.59C121.765 295.973 121.327 297.032 121.71 297.955C122.092 298.879 123.151 299.317 124.075 298.934Z" fill="#1F1F1F"/>
<path d="M126.341 324C126.621 324.52 133.341 323.14 134.111 319.35C134.471 317.65 133.591 315.67 132.931 315.65C132.271 315.63 132.221 317.29 131.021 319.34C129.051 322.76 126.151 323.7 126.341 324Z" fill="#1F1F1F"/>
</svg>
