<svg width="321" height="365" viewBox="0 0 321 365" fill="none" xmlns="http://www.w3.org/2000/svg">
<path d="M94.1696 140.727C120.272 109.13 138.319 80.9425 134.479 77.7698C130.638 74.5971 106.364 97.6401 80.2615 129.238C54.1587 160.836 36.1116 189.023 39.9522 192.195C43.7928 195.368 68.0668 172.325 94.1696 140.727Z" stroke="#1F1F1F" stroke-width="6" stroke-miterlimit="10"/>
<path d="M273.829 198.319C283.59 206.388 271.539 237.103 246.898 266.927C222.257 296.751 194.389 314.374 184.609 306.311" stroke="#1F1F1F" stroke-width="6" stroke-miterlimit="10"/>
<path d="M40.3514 192.478C49.9984 196.083 59.9611 198.779 70.1095 200.531C78.8209 202.033 87.6388 202.835 96.4784 202.928C97.2857 204.759 98.4762 206.396 99.9696 207.728C105.511 212.568 112.026 209.757 120.136 213.443C123.461 215.032 126.404 217.319 128.765 220.148C136.134 228.33 134.286 235.42 141.209 241.588C143.71 243.772 146.677 245.357 149.883 246.221C156.002 257.902 162.527 269.826 169.459 281.993C173.019 288.224 176.581 294.33 180.144 300.312C184.027 306.882 189.418 312.434 195.873 316.507C202.327 320.58 209.659 323.057 217.261 323.733L218.191 323.805C233.703 324.825 245.621 316.911 254.294 311.026C262.407 305.485 269.635 298.749 275.733 291.046L276.013 290.701C282.428 283.259 287.679 274.888 291.588 265.874C295.749 256.25 301.23 243.051 297.336 228.017C297.222 227.592 297.134 227.263 297.095 227.119C294.998 219.773 291.18 213.032 285.957 207.457C280.734 201.881 274.258 197.631 267.064 195.059C260.517 192.672 253.847 190.318 247.055 187.997C233.805 183.472 220.865 179.313 208.233 175.52C206.779 172.528 204.661 169.909 202.04 167.862C194.68 162.224 188.074 165.392 178.634 159.639C175.412 157.853 172.613 155.393 170.428 152.428C165.277 145.184 166.808 138.262 161.007 133.729C159.419 132.513 157.589 131.651 155.64 131.202C153.883 122.539 151.433 114.031 148.316 105.76C144.681 96.1247 140.155 86.8496 134.795 78.0558" stroke="#1F1F1F" stroke-width="6" stroke-miterlimit="10"/>
<path d="M96.4855 202.916C108.95 193.45 120.279 182.577 130.249 170.513C140.214 158.451 148.753 145.279 155.697 131.259" stroke="#1F1F1F" stroke-width="6" stroke-miterlimit="10"/>
<path d="M120.607 203.492C137.238 190.051 150.96 173.366 160.938 154.453" stroke="#1F1F1F" stroke-width="6" stroke-linecap="round" stroke-linejoin="round"/>
<path d="M178.338 210.271C185.887 201.21 191.63 190.787 195.258 179.566" stroke="#1F1F1F" stroke-width="6" stroke-linecap="round" stroke-linejoin="round"/>
<path d="M127.784 219.345C149.627 204.149 166.881 183.251 177.666 158.926" stroke="#1F1F1F" stroke-width="6" stroke-miterlimit="10"/>
<path d="M149.868 246.204C164.209 239.459 176.879 229.626 186.972 217.408C197.065 205.191 204.33 190.892 208.247 175.536" stroke="#1F1F1F" stroke-width="6" stroke-miterlimit="10"/>
<path d="M190.069 156.458C193.273 152.579 192.726 146.836 188.847 143.632C184.968 140.428 179.226 140.975 176.022 144.854C172.818 148.732 173.364 154.475 177.243 157.679C181.122 160.883 186.864 160.337 190.069 156.458Z" stroke="#1F1F1F" stroke-width="6" stroke-miterlimit="10"/>
<path fill-rule="evenodd" clip-rule="evenodd" d="M22.4251 129.44C21.1509 130.758 20.3679 132.473 20.2073 134.3C19.9498 140.332 28.9073 145.634 36.0214 146.761C41.0438 147.606 46.2007 146.552 50.4895 143.806C52.2428 142.622 55.0066 140.804 56.2721 137.297C58.1892 132.011 55.364 126.722 54.9949 126.117C48.7064 114.664 24.7608 115.438 21.5631 122.9C20.7441 124.828 21.317 127.159 22.4251 129.44Z" stroke="#1F1F1F" stroke-width="6" stroke-miterlimit="10"/>
<path d="M22.425 129.44C24.9831 130.684 27.7216 131.515 30.5392 131.904C37.2737 132.812 40.4325 130.537 45.7337 131.467C48.4269 131.935 52.1517 133.319 56.2562 137.509" stroke="#1F1F1F" stroke-width="6" stroke-miterlimit="10"/>
<path fill-rule="evenodd" clip-rule="evenodd" d="M35.2798 57.2535C33.2656 56.9156 31.1964 57.2729 29.4121 58.2667C23.5751 61.8288 23.8157 73.3904 26.8687 80.689C28.9707 85.8262 32.9847 89.9469 38.0651 92.1828C40.2344 93.0923 43.5225 94.4682 47.5608 93.4275C53.6617 91.8549 57.0113 85.9259 57.3827 85.2259C64.4993 72.2209 49.8336 50.5999 40.9412 52.3408C38.6518 52.799 36.7861 54.8 35.2798 57.2535Z" stroke="#1F1F1F" stroke-width="6" stroke-miterlimit="10"/>
<path d="M35.2798 57.2533C35.5985 60.3738 36.4155 63.423 37.6998 66.2847C40.7857 73.0878 44.7303 74.557 46.9328 80.0335C48.057 82.8381 48.915 87.122 47.3638 93.5423" stroke="#1F1F1F" stroke-width="6" stroke-miterlimit="10"/>
<path fill-rule="evenodd" clip-rule="evenodd" d="M90.4024 90.1888C88.8242 89.8162 87.1663 89.9903 85.7 90.6827C80.886 93.1942 80.4776 102.373 82.5087 108.33C83.9036 112.514 86.8698 115.992 90.781 118.029C93.022 119.367 95.6562 119.89 98.2382 119.51C103.166 118.583 106.098 114.07 106.451 113.531C112.755 103.559 102.275 85.6616 95.1475 86.6087C93.3055 86.8434 91.7149 88.3256 90.4024 90.1888Z" stroke="#1F1F1F" stroke-width="6" stroke-miterlimit="10"/>
<path d="M90.4024 90.1889C90.488 92.679 90.9724 95.1392 91.8373 97.4759C93.9 103.011 96.9795 104.38 98.447 108.853C99.1886 111.118 99.6469 114.567 98.0792 119.573" stroke="#1F1F1F" stroke-width="6" stroke-miterlimit="10"/>
</svg>
