<svg width="46" height="37" viewBox="0 0 46 37" fill="none" xmlns="http://www.w3.org/2000/svg">
<path d="M6 10L10.1228 23.1931C10.6447 24.863 12.1912 26 13.9408 26H23.5M23 10L32 2C34.6667 3.66667 39.2 8.9 36 16.5" stroke="#11AC5F" stroke-width="3" stroke-linecap="round" stroke-linejoin="round"/>
<path d="M35.4093 22.7548L36.5 23.9101L37.5907 22.7548C38.3219 21.9803 39.3537 21.5 40.5 21.5C42.7091 21.5 44.5 23.2909 44.5 25.5C44.5 26.4563 44.0785 27.5687 43.2675 28.7851C42.4675 29.9852 41.3731 31.1598 40.2338 32.2092C39.1007 33.2528 37.9611 34.1381 37.1015 34.7639C36.8798 34.9253 36.6777 35.0688 36.5 35.1927C36.3223 35.0688 36.1202 34.9253 35.8985 34.7639C35.0389 34.1381 33.8993 33.2528 32.7662 32.2092C31.6269 31.1598 30.5325 29.9852 29.7325 28.7851C28.9215 27.5687 28.5 26.4563 28.5 25.5C28.5 23.2909 30.2909 21.5 32.5 21.5C33.6463 21.5 34.6781 21.9803 35.4093 22.7548Z" stroke="black" stroke-width="3"/>
<path d="M2 8.5C1.17157 8.5 0.5 9.17157 0.5 10C0.5 10.8284 1.17157 11.5 2 11.5V8.5ZM40.5 11.5C41.3284 11.5 42 10.8284 42 10C42 9.17157 41.3284 8.5 40.5 8.5V11.5ZM2 11.5H40.5V8.5H2V11.5Z" fill="black"/>
</svg>
