<svg width="47" height="47" viewBox="0 0 47 47" fill="none" xmlns="http://www.w3.org/2000/svg">
<path d="M8.26172 6.88525C8.26172 7.64544 7.64532 8.2622 6.88477 8.2622C6.12458 8.2622 5.50782 7.64544 5.50782 6.88525C5.50782 6.1247 6.12458 5.5083 6.88477 5.5083C7.64532 5.5083 8.26172 6.1247 8.26172 6.88525Z" fill="#1F1F1F"/>
<path d="M13.7695 6.88525C13.7695 7.64544 13.1531 8.2622 12.3926 8.2622C11.6324 8.2622 11.0156 7.64544 11.0156 6.88525C11.0156 6.1247 11.6324 5.5083 12.3926 5.5083C13.1531 5.5083 13.7695 6.1247 13.7695 6.88525Z" fill="#1F1F1F"/>
<path d="M19.2773 6.88525C19.2773 7.64544 18.6609 8.2622 17.9003 8.2622C17.1401 8.2622 16.5234 7.64544 16.5234 6.88525C16.5234 6.1247 17.1401 5.5083 17.9003 5.5083C18.6609 5.5083 19.2773 6.1247 19.2773 6.88525Z" fill="#1F1F1F"/>
<path d="M46.8037 42.9669L43.8827 38.0988C43.4219 37.3304 42.3609 37.2013 41.7284 37.8335L40.7548 38.8074L34.9128 32.9654L37.6065 30.2714C39.7436 30.5722 41.913 29.8597 43.4284 28.3444C46.1127 25.66 46.1127 21.2921 43.4284 18.6078C41.3694 16.5492 38.3211 16.0712 35.8007 17.1706C35.8007 15.5366 35.8007 2.76645 35.8007 1.37695C35.8007 0.6164 35.1843 0 34.4237 0H1.37695C0.6164 0 0 0.6164 0 1.37695V34.4237C0 35.1843 0.6164 35.8007 1.37695 35.8007H16.911C16.3796 36.7893 16.097 37.9002 16.097 39.0544C16.097 42.8593 19.1762 45.9392 22.9818 45.9392C27.1929 45.9392 30.3578 42.2311 29.7772 38.101L32.9654 34.9128L38.8074 40.7548L37.8338 41.7284C37.1999 42.362 37.3322 43.4227 38.0988 43.8827L42.9673 46.8037C43.5145 47.1322 44.2072 47.0386 44.6494 46.5965L46.5965 44.6494C47.0432 44.2022 47.1286 43.5087 46.8037 42.9669ZM31.7648 24.4294L30.8526 25.342C30.6525 24.9246 30.3814 24.5395 30.0444 24.2024L24.2027 18.3608C23.6652 17.8229 22.7932 17.8229 22.2553 18.3608L18.5849 22.0312H2.7539V13.7695H33.0468V19.3562C31.9764 20.7991 31.5117 22.63 31.7648 24.4294ZM26.1498 28.0969L21.2817 23.2288L23.2292 21.2814L28.0973 26.1498C28.6355 26.6881 28.6355 27.5587 28.0973 28.0969C27.5601 28.6341 26.6866 28.6337 26.1498 28.0969ZM2.7539 2.7539H33.0468V11.0156H2.7539V2.7539ZM2.7539 24.7851H18.9431L24.2027 30.0444C24.5438 30.3857 24.931 30.654 25.3438 30.8505L23.9352 32.259C22.44 32.0488 20.9239 32.3346 19.6262 33.0507C19.6004 33.0489 19.5749 33.0468 19.5491 33.0468H2.7539V24.7851ZM27.3098 36.6735C26.9631 37.0202 26.8268 37.5251 26.9523 37.9988C27.3353 39.4485 26.943 40.9352 25.9028 41.9754C25.1225 42.7553 24.0851 43.1853 22.9818 43.1853C22.3546 43.1853 21.7493 43.0462 21.2 42.7833L23.9553 40.028C24.4928 39.4901 24.4928 38.6184 23.9553 38.0809C23.4175 37.543 22.5457 37.543 22.0079 38.0809L19.2529 40.8359C18.9897 40.2869 18.8509 39.6812 18.8509 39.0544C18.8509 37.9511 19.2805 36.9137 20.0608 36.1334C21.1043 35.09 22.5916 34.702 24.0371 35.0839C24.5111 35.2094 25.0156 35.0731 25.3624 34.7264L34.2319 25.8569C34.5786 25.5101 34.7145 25.0053 34.5894 24.5316C34.2064 23.0818 34.5987 21.5951 35.639 20.5549C36.9083 19.2859 38.8045 19.0177 40.3399 19.7488L37.5864 22.5024C37.0485 23.0402 37.0485 23.9119 37.5864 24.4494C38.1239 24.9873 38.996 24.9873 39.5335 24.4494L42.287 21.6963C43.0185 23.2314 42.7503 25.1275 41.4809 26.3969C40.4407 27.4371 38.9544 27.8294 37.5046 27.4465C37.0313 27.3213 36.5261 27.4576 36.1793 27.804L27.3098 36.6735ZM43.4621 43.8888L41.0281 42.4283L42.4287 41.0277L43.8892 43.4621L43.4621 43.8888Z" fill="#1F1F1F"/>
<path d="M8.26172 17.9009C8.26172 18.6611 7.64532 19.2778 6.88477 19.2778C6.12458 19.2778 5.50782 18.6611 5.50782 17.9009C5.50782 17.1403 6.12458 16.5239 6.88477 16.5239C7.64532 16.5239 8.26172 17.1403 8.26172 17.9009Z" fill="#1F1F1F"/>
<path d="M13.7695 17.9009C13.7695 18.6611 13.1531 19.2778 12.3926 19.2778C11.6324 19.2778 11.0156 18.6611 11.0156 17.9009C11.0156 17.1403 11.6324 16.5239 12.3926 16.5239C13.1531 16.5239 13.7695 17.1403 13.7695 17.9009Z" fill="#1F1F1F"/>
<path d="M19.2773 17.9009C19.2773 18.6611 18.6609 19.2778 17.9003 19.2778C17.1401 19.2778 16.5234 18.6611 16.5234 17.9009C16.5234 17.1403 17.1401 16.5239 17.9003 16.5239C18.6609 16.5239 19.2773 17.1403 19.2773 17.9009Z" fill="#1F1F1F"/>
<path d="M8.26172 28.9165C8.26172 29.6767 7.64532 30.2935 6.88477 30.2935C6.12458 30.2935 5.50782 29.6767 5.50782 28.9165C5.50782 28.156 6.12458 27.5396 6.88477 27.5396C7.64532 27.5396 8.26172 28.156 8.26172 28.9165Z" fill="#1F1F1F"/>
<path d="M13.7695 28.9165C13.7695 29.6767 13.1531 30.2935 12.3926 30.2935C11.6324 30.2935 11.0156 29.6767 11.0156 28.9165C11.0156 28.156 11.6324 27.5396 12.3926 27.5396C13.1531 27.5396 13.7695 28.156 13.7695 28.9165Z" fill="#1F1F1F"/>
<path d="M19.2773 28.9165C19.2773 29.6767 18.6609 30.2935 17.9003 30.2935C17.1401 30.2935 16.5234 29.6767 16.5234 28.9165C16.5234 28.156 17.1401 27.5396 17.9003 27.5396C18.6609 27.5396 19.2773 28.156 19.2773 28.9165Z" fill="#1F1F1F"/>
<mask id="mask0" mask-type="alpha" maskUnits="userSpaceOnUse" x="0" y="0" width="47" height="47">
<path d="M8.26172 6.88525C8.26172 7.64544 7.64532 8.2622 6.88477 8.2622C6.12458 8.2622 5.50782 7.64544 5.50782 6.88525C5.50782 6.1247 6.12458 5.5083 6.88477 5.5083C7.64532 5.5083 8.26172 6.1247 8.26172 6.88525Z" fill="#1F1F1F"/>
<path d="M13.7695 6.88525C13.7695 7.64544 13.1531 8.2622 12.3926 8.2622C11.6324 8.2622 11.0156 7.64544 11.0156 6.88525C11.0156 6.1247 11.6324 5.5083 12.3926 5.5083C13.1531 5.5083 13.7695 6.1247 13.7695 6.88525Z" fill="#1F1F1F"/>
<path d="M19.2773 6.88525C19.2773 7.64544 18.6609 8.2622 17.9003 8.2622C17.1401 8.2622 16.5234 7.64544 16.5234 6.88525C16.5234 6.1247 17.1401 5.5083 17.9003 5.5083C18.6609 5.5083 19.2773 6.1247 19.2773 6.88525Z" fill="#1F1F1F"/>
<path d="M46.8037 42.9669L43.8827 38.0988C43.4219 37.3304 42.3609 37.2013 41.7284 37.8335L40.7548 38.8074L34.9128 32.9654L37.6065 30.2714C39.7436 30.5722 41.913 29.8597 43.4284 28.3444C46.1127 25.66 46.1127 21.2921 43.4284 18.6078C41.3694 16.5492 38.3211 16.0712 35.8007 17.1706C35.8007 15.5366 35.8007 2.76645 35.8007 1.37695C35.8007 0.6164 35.1843 0 34.4237 0H1.37695C0.6164 0 0 0.6164 0 1.37695V34.4237C0 35.1843 0.6164 35.8007 1.37695 35.8007H16.911C16.3796 36.7893 16.097 37.9002 16.097 39.0544C16.097 42.8593 19.1762 45.9392 22.9818 45.9392C27.1929 45.9392 30.3578 42.2311 29.7772 38.101L32.9654 34.9128L38.8074 40.7548L37.8338 41.7284C37.1999 42.362 37.3322 43.4227 38.0988 43.8827L42.9673 46.8037C43.5145 47.1322 44.2072 47.0386 44.6494 46.5965L46.5965 44.6494C47.0432 44.2022 47.1286 43.5087 46.8037 42.9669ZM31.7648 24.4294L30.8526 25.342C30.6525 24.9246 30.3814 24.5395 30.0444 24.2024L24.2027 18.3608C23.6652 17.8229 22.7932 17.8229 22.2553 18.3608L18.5849 22.0312H1.7539V13.7695H33.0468V19.3562C31.9764 20.7991 31.5117 22.63 31.7648 24.4294ZM26.1498 28.0969L21.2817 23.2288L23.2292 21.2814L28.0973 26.1498C28.6355 26.6881 28.6355 27.5587 28.0973 28.0969C27.5601 28.6341 26.6866 28.6337 26.1498 28.0969ZM1.7539 2.7539H33.0468V11.0156H1.7539V2.7539ZM1.7539 24.7851H18.9431L24.2027 30.0444C24.5438 30.3857 24.931 30.654 25.3438 30.8505L23.9352 32.259C22.44 32.0488 20.9239 32.3346 19.6262 33.0507C19.6004 33.0489 19.5749 33.0468 19.5491 33.0468H1.7539V24.7851ZM27.3098 36.6735C26.9631 37.0202 26.8268 37.5251 26.9523 37.9988C27.3353 39.4485 26.943 40.9352 25.9028 41.9754C25.1225 42.7553 24.0851 43.1853 22.9818 43.1853C22.3546 43.1853 21.7493 43.0462 21.2 42.7833L23.9553 40.028C24.4928 39.4901 24.4928 38.6184 23.9553 38.0809C23.4175 37.543 22.5457 37.543 22.0079 38.0809L19.2529 40.8359C18.9897 40.2869 18.8509 39.6812 18.8509 39.0544C18.8509 37.9511 19.2805 36.9137 20.0608 36.1334C21.1043 35.09 22.5916 34.702 24.0371 35.0839C24.5111 35.2094 25.0156 35.0731 25.3624 34.7264L34.2319 25.8569C34.5786 25.5101 34.7145 25.0052 34.5894 24.5316C34.2064 23.0818 34.5987 21.5951 35.639 20.5549C36.9083 19.2859 38.8045 19.0177 40.3399 19.7488L37.5864 22.5024C37.0485 23.0402 37.0485 23.9119 37.5864 24.4494C38.1239 24.9873 38.996 24.9873 39.5335 24.4494L42.287 21.6963C43.0185 23.2314 42.7503 25.1275 41.4809 26.3969C40.4407 27.4371 38.9544 27.8294 37.5046 27.4465C37.0313 27.3213 36.5261 27.4576 36.1793 27.804L27.3098 36.6735ZM43.4621 43.8888L41.0281 42.4283L42.4287 41.0277L43.8892 43.4621L43.4621 43.8888Z" fill="#1F1F1F"/>
<path d="M8.26172 17.9009C8.26172 18.6611 7.64532 19.2778 6.88477 19.2778C6.12458 19.2778 5.50782 18.6611 5.50782 17.9009C5.50782 17.1403 6.12458 16.5239 6.88477 16.5239C7.64532 16.5239 8.26172 17.1403 8.26172 17.9009Z" fill="#1F1F1F"/>
<path d="M13.7695 17.9009C13.7695 18.6611 13.1531 19.2778 12.3926 19.2778C11.6324 19.2778 11.0156 18.6611 11.0156 17.9009C11.0156 17.1403 11.6324 16.5239 12.3926 16.5239C13.1531 16.5239 13.7695 17.1403 13.7695 17.9009Z" fill="#1F1F1F"/>
<path d="M19.2773 17.9009C19.2773 18.6611 18.6609 19.2778 17.9003 19.2778C17.1401 19.2778 16.5234 18.6611 16.5234 17.9009C16.5234 17.1403 17.1401 16.5239 17.9003 16.5239C18.6609 16.5239 19.2773 17.1403 19.2773 17.9009Z" fill="#1F1F1F"/>
<path d="M8.26172 28.9165C8.26172 29.6767 7.64532 30.2935 6.88477 30.2935C6.12458 30.2935 5.50782 29.6767 5.50782 28.9165C5.50782 28.156 6.12458 27.5396 6.88477 27.5396C7.64532 27.5396 8.26172 28.156 8.26172 28.9165Z" fill="#1F1F1F"/>
<path d="M13.7695 28.9165C13.7695 29.6767 13.1531 30.2935 12.3926 30.2935C11.6324 30.2935 11.0156 29.6767 11.0156 28.9165C11.0156 28.156 11.6324 27.5396 12.3926 27.5396C13.1531 27.5396 13.7695 28.156 13.7695 28.9165Z" fill="#1F1F1F"/>
<path d="M19.2773 28.9165C19.2773 29.6767 18.6609 30.2935 17.9003 30.2935C17.1401 30.2935 16.5234 29.6767 16.5234 28.9165C16.5234 28.156 17.1401 27.5396 17.9003 27.5396C18.6609 27.5396 19.2773 28.156 19.2773 28.9165Z" fill="#1F1F1F"/>
</mask>
<g mask="url(#mask0)">
<path d="M31.0684 38.6364C31.0684 42.816 27.6801 46.2043 23.5005 46.2043C19.3208 46.2043 15.9325 43.2144 15.9325 39.0347C15.9325 34.855 19.9156 31.4668 23.5005 32.2634C27.0853 26.687 31.0684 34.4567 31.0684 38.6364Z" fill="#11AC5F"/>
<path d="M46.6026 23.8987C46.6026 28.0784 42.816 31.0684 38.6364 31.0684C36.1799 31.0684 29.7691 29.2002 28.5 27.5C27.6097 26.3074 31.4667 25.6219 31.4667 23.8987C31.4667 19.5173 35.4499 16.3308 38.6364 16.3308C42.816 16.3308 46.6026 19.7191 46.6026 23.8987Z" fill="#11AC5F"/>
<path d="M22.7038 17.9241C23.0149 17.613 23.5193 17.613 23.8304 17.9241L52.0518 45.5919C52.3629 45.903 52.3629 46.4074 52.0518 46.7185L46.7186 52.0518C46.4075 52.3629 45.9031 52.3629 45.592 52.0518L17.9241 23.8304C17.613 23.5193 17.613 23.0149 17.9241 22.7038L22.7038 17.9241Z" fill="#11AC5F"/>
</g>
</svg>
