<svg width="223" height="60" viewBox="0 0 223 60" fill="none" xmlns="http://www.w3.org/2000/svg">
<path d="M38.8917 4.07908H39.0067C40.2424 4.16734 40.9164 5.73467 41.1251 6.21878C41.4218 6.92325 41.5535 7.68623 41.5102 8.44941C41.4975 8.67567 41.5532 8.9005 41.6701 9.09466C41.787 9.28881 41.9596 9.44328 42.1655 9.53798C42.3438 9.62 42.5221 9.70915 42.7004 9.80544C46.3005 11.7258 47.218 14.9487 51.2835 15.7912C51.8715 15.911 52.4701 15.971 53.0701 15.9704H74.6066C78.6337 16.1246 82.4987 17.5971 85.6076 20.1616C88.3923 22.4685 90.4038 25.573 91.3715 29.0573C91.5388 29.6875 91.6691 30.327 91.762 30.9724L93.2224 38.817C93.2828 39.1125 93.2318 39.42 93.0793 39.6802C92.9267 39.9404 92.6833 40.135 92.3959 40.2265H92.3798C92.3042 40.2474 92.2274 40.2635 92.1498 40.2747C92.0946 40.2786 92.0392 40.2786 91.984 40.2747C91.7298 40.2708 91.4829 40.189 91.2767 40.0402C91.0705 39.8914 90.915 39.6829 90.8312 39.4429L89.8416 36.664C89.6572 37.6973 89.3705 38.7097 88.9857 39.6863C88.6577 40.55 88.2295 41.3723 87.7098 42.1362C87.5654 42.3261 87.2792 42.6925 86.7764 43.3612C86.5972 43.5992 86.3886 43.8828 86.1371 44.2305C85.744 44.7654 84.4414 46.6831 84.0429 47.3731C83.7353 47.9081 83.0773 49.2454 82.9543 51.8478C82.9258 52.4742 82.7246 53.0806 82.373 53.5999C82.0213 54.1191 81.5328 54.531 80.9616 54.7898C79.7835 55.3253 78.5225 55.6555 77.2331 55.7661C76.9068 55.7928 76.5886 55.8062 76.281 55.8062C74.4537 55.7999 72.6537 55.3619 71.0279 54.5277C70.855 54.4401 70.7076 54.3094 70.5998 54.1483C70.4921 53.9871 70.4276 53.8009 70.4127 53.6077C70.3618 52.6639 69.9975 51.7641 69.3776 51.0507C68.6902 50.2965 65.9006 49.922 63.0921 49.922C60.2837 49.922 57.4941 50.2992 56.8067 51.0507C56.1789 51.7743 55.8133 52.6882 55.7689 53.6451C55.7559 53.8262 55.697 54.001 55.5978 54.1531C55.4986 54.3052 55.3624 54.4295 55.2019 54.5144C53.5261 55.4245 51.6525 55.9095 49.7455 55.9266C49.1277 55.9262 48.511 55.8716 47.9027 55.7634C47.1452 55.6287 46.4045 55.4126 45.6934 55.1188C45.0241 54.8364 44.4556 54.3585 44.0624 53.7476C43.6691 53.1368 43.4695 52.4215 43.4895 51.6953C43.5966 48.9748 42.7276 46.3057 41.0394 44.1697C39.3511 42.0337 36.9549 40.5716 34.2832 40.0473L16.9968 39.5124C10.7702 39.0069 5.76319 35.1474 4.42585 30.0844C3.249 25.6258 5.0651 20.7954 8.09283 18.0486C10.2941 16.0587 12.5756 15.7912 15.0844 15.7912C15.8868 15.7912 16.708 15.8153 17.5585 15.8153C20.3268 15.8153 23.3973 15.5478 26.9439 13.3306C30.0867 11.3594 31.3892 9.26249 35.1124 8.68745C35.5874 8.61282 36.0659 8.56283 36.546 8.53767C36.7975 8.52615 37.0361 8.42339 37.2173 8.24863C37.3985 8.07386 37.5097 7.83906 37.5303 7.58818L37.5704 7.0907C37.6533 5.97806 37.1344 5.3736 37.5276 4.73971C37.6838 4.52528 37.8899 4.3521 38.128 4.23514C38.3661 4.11817 38.6292 4.06094 38.8944 4.06838L38.8917 4.07908ZM38.8944 0.000288185C37.935 -0.0093836 36.9888 0.224536 36.1445 0.680151C35.3001 1.13576 34.5852 1.79817 34.0666 2.60537C33.6364 3.29739 33.3829 4.08452 33.3284 4.89751C30.421 5.60094 28.6076 7.02384 26.9867 8.3023C26.2817 8.87682 25.546 9.41253 24.7828 9.90707C22.0413 11.6269 19.7009 11.7793 17.5612 11.7793C17.16 11.7793 16.7588 11.7793 16.3469 11.7793C15.935 11.7793 15.5124 11.7793 15.0898 11.7793C11.923 11.7793 8.5502 12.1805 5.35129 15.0958C0.959476 19.1078 -0.993036 25.5643 0.491408 31.189C2.28879 37.9932 8.7829 42.9948 16.6678 43.634H16.8551L33.743 44.1449C35.4151 44.5317 36.8986 45.4927 37.9352 46.8607C38.9718 48.2286 39.4958 49.9167 39.4159 51.6311C39.3756 53.1764 39.8053 54.6974 40.6482 55.9931C41.4912 57.2888 42.7077 58.2981 44.1367 58.8874C45.9137 59.6215 47.8175 59.9995 49.7402 60C52.3214 59.9845 54.8589 59.3323 57.1276 58.101C57.8509 57.7167 58.4713 57.1643 58.9367 56.4904C59.4022 55.8165 59.699 55.0407 59.8023 54.2282C61.9882 53.9194 64.2067 53.9194 66.3927 54.2282C66.5029 55.0596 66.8141 55.8516 67.2992 56.5357C67.7844 57.2199 68.4289 57.7755 69.177 58.1545C71.3775 59.2826 73.8135 59.8747 76.2863 59.8823C76.7169 59.8823 77.1529 59.8636 77.5835 59.8262C79.3344 59.677 81.0469 59.2292 82.6467 58.5022C83.8987 57.9365 84.9694 57.035 85.7399 55.8976C86.5105 54.7602 86.9507 53.4315 87.0118 52.0591C87.0947 50.3072 87.4825 49.561 87.5467 49.4272C87.8142 48.9431 89.0124 47.1939 89.419 46.6189C89.6222 46.3354 89.8121 46.084 90.002 45.8165C90.323 45.3912 90.553 45.0917 90.7108 44.8831L90.9328 44.5942C91.0042 44.4997 91.0764 44.399 91.1495 44.292C91.6655 44.3696 92.1902 44.3696 92.7061 44.292C92.9461 44.2574 93.1837 44.2083 93.4176 44.1449L93.4738 44.1288H93.4871C94.7528 43.7657 95.8363 42.9412 96.5236 41.8181C97.211 40.695 97.4521 39.355 97.1996 38.0628L95.7553 30.293C95.6402 29.5188 95.4812 28.7517 95.2792 27.9955C94.1047 23.6977 91.6311 19.8678 88.1966 17.0296C84.397 13.8863 79.6681 12.0817 74.7404 11.8943H53.0487C52.7227 11.8951 52.3974 11.8628 52.0778 11.798C50.9518 11.568 50.3473 10.9956 49.0849 9.74927C48.0044 8.60015 46.7925 7.58214 45.4741 6.71625C45.359 5.99868 45.156 5.29801 44.8696 4.63005C43.3343 1.04339 40.986 0.147392 39.2956 0.0243597C39.1618 0.0243597 39.0281 0.0109867 38.8917 0.0109867L38.8944 0.000288185Z" fill="#16AD60"/>
<path d="M32.3815 16.5805C33.1674 16.5805 33.8044 15.9434 33.8044 15.1576C33.8044 14.3717 33.1674 13.7347 32.3815 13.7347C31.5957 13.7347 30.9586 14.3717 30.9586 15.1576C30.9586 15.9434 31.5957 16.5805 32.3815 16.5805Z" fill="#16AD60"/>
<path d="M26.4491 35.5486C26.4946 36.0113 31.7985 37.025 33.5076 34.5108C34.2806 33.3821 34.2404 31.6757 33.775 31.4671C33.3097 31.2585 32.7667 32.446 31.2715 33.5747C28.8055 35.4309 26.417 35.2383 26.4491 35.5486Z" fill="#16AD60"/>
<path d="M134.8 27.2183H130.24V19.2151H122.968V27.2183H118.409V7.34559H122.968V14.9549H130.24V7.34559H134.8V27.2183Z" fill="#1F1F1F"/>
<path d="M151.52 27.2183H139.4V7.34559H151.232V11.6058H143.96V15.0944H150.374V19.3546H143.96V22.9581H151.52V27.2183Z" fill="#1F1F1F"/>
<path d="M168.166 27.2183H155.478V7.34559H160.037V22.9417H168.166V27.2183Z" fill="#1F1F1F"/>
<path d="M183.196 27.2183H170.508V7.34559H175.067V22.9417H183.196V27.2183Z" fill="#1F1F1F"/>
<path d="M184.169 17.286C184.131 15.9308 184.372 14.5821 184.877 13.323C185.381 12.0638 186.14 10.9207 187.104 9.96408C188.113 8.97759 189.313 8.20663 190.632 7.69848C191.95 7.19034 193.359 6.95575 194.772 7.00905C196.165 6.95138 197.556 7.16982 198.864 7.65174C200.172 8.13366 201.37 8.86944 202.39 9.81634C204.327 11.8069 205.41 14.4695 205.41 17.2409C205.41 20.0122 204.327 22.6749 202.39 24.6655C201.385 25.6288 200.195 26.3815 198.892 26.8792C197.59 27.3769 196.2 27.6094 194.805 27.5631C191.986 27.6653 189.239 26.6566 187.162 24.7558C186.164 23.7904 185.381 22.626 184.865 21.3389C184.349 20.0517 184.112 18.6707 184.169 17.286ZM189.017 17.286C188.995 18.0731 189.13 18.8568 189.413 19.5921C189.696 20.3273 190.122 20.9998 190.666 21.5709C191.767 22.6703 193.259 23.2931 194.818 23.3038C196.377 23.3146 197.878 22.7125 198.993 21.6284C200.02 20.4174 200.558 18.8697 200.502 17.286C200.538 16.4887 200.41 15.6925 200.127 14.9459C199.843 14.1994 199.41 13.5182 198.853 12.9438C198.315 12.4043 197.672 11.9803 196.963 11.698C196.254 11.4156 195.494 11.2809 194.731 11.3021C193.967 11.2754 193.206 11.4076 192.496 11.6903C191.786 11.973 191.143 12.3999 190.608 12.9438C190.068 13.5266 189.649 14.2106 189.375 14.956C189.102 15.7014 188.981 16.4934 189.017 17.286Z" fill="#1F1F1F"/>
<path d="M206.917 24.92C206.898 24.5661 206.953 24.2121 207.077 23.8802C207.202 23.5483 207.394 23.2456 207.642 22.991C207.917 22.7445 208.239 22.5552 208.589 22.4339C208.939 22.3127 209.309 22.2621 209.679 22.285C210.09 22.2719 210.499 22.3549 210.873 22.5273C211.247 22.6998 211.575 22.957 211.83 23.2783C212.402 24.0168 212.694 24.9323 212.655 25.8639C212.709 27.1014 212.333 28.3197 211.589 29.3129C210.846 30.306 209.781 31.013 208.574 31.3144L207.403 29.3525C208.04 29.132 208.608 28.7501 209.052 28.2444C209.492 27.7355 209.681 27.3278 209.621 27.0214C209.359 27.1878 209.047 27.2575 208.739 27.2184C208.489 27.208 208.245 27.1413 208.025 27.0233C207.805 26.9052 207.615 26.739 207.469 26.537C207.097 26.0809 206.901 25.5074 206.917 24.92Z" fill="#1F1F1F"/>
<path d="M122.857 52.6564H118.297V32.7755H129.84V37.0357H122.857V41.2384H128.991V45.4987H122.857V52.6564Z" fill="#1F1F1F"/>
<path d="M131.563 42.7159C131.525 41.3607 131.766 40.0121 132.271 38.7529C132.775 37.4937 133.533 36.3507 134.498 35.394C135.507 34.4075 136.707 33.6365 138.026 33.1284C139.344 32.6202 140.753 32.3856 142.166 32.4389C143.559 32.3812 144.95 32.5997 146.258 33.0816C147.566 33.5636 148.764 34.2993 149.784 35.2462C151.721 37.2368 152.804 39.8994 152.804 42.6708C152.804 45.4422 151.721 48.1048 149.784 50.0954C148.779 51.0586 147.589 51.8114 146.286 52.3091C144.983 52.8068 143.594 53.0393 142.199 52.9929C139.379 53.0951 136.633 52.0864 134.556 50.1856C133.557 49.2202 132.775 48.0559 132.259 46.7687C131.743 45.4816 131.506 44.1006 131.563 42.7159ZM136.411 42.7159C136.389 43.503 136.524 44.2867 136.807 45.022C137.09 45.7573 137.516 46.4297 138.06 47.0007C139.161 48.1002 140.653 48.723 142.212 48.7337C143.771 48.7445 145.271 48.1424 146.387 47.0582C147.414 45.8473 147.952 44.2996 147.896 42.7159C147.932 41.9186 147.804 41.1224 147.52 40.3758C147.237 39.6293 146.804 38.948 146.247 38.3736C145.709 37.8342 145.066 37.4102 144.357 37.1278C143.648 36.8455 142.888 36.7107 142.125 36.7319C141.361 36.7053 140.6 36.8375 139.89 37.1202C139.18 37.4029 138.537 37.8297 138.002 38.3736C137.462 38.9565 137.042 39.6404 136.769 40.3859C136.496 41.1313 136.374 41.9233 136.411 42.7159Z" fill="#1F1F1F"/>
<path d="M154.83 42.7159C154.792 41.3607 155.032 40.0121 155.537 38.7529C156.042 37.4937 156.8 36.3507 157.765 35.394C158.774 34.4075 159.974 33.6365 161.292 33.1284C162.611 32.6202 164.02 32.3856 165.433 32.4389C166.826 32.3812 168.217 32.5997 169.525 33.0816C170.832 33.5636 172.031 34.2993 173.051 35.2462C174.988 37.2368 176.071 39.8994 176.071 42.6708C176.071 45.4422 174.988 48.1048 173.051 50.0954C172.045 51.0586 170.856 51.8114 169.553 52.3091C168.25 52.8068 166.86 53.0393 165.466 52.9929C162.646 53.0951 159.9 52.0864 157.823 50.1856C156.824 49.2202 156.041 48.0559 155.526 46.7687C155.01 45.4816 154.773 44.1006 154.83 42.7159ZM159.678 42.7159C159.656 43.503 159.79 44.2867 160.073 45.022C160.356 45.7573 160.782 46.4297 161.327 47.0007C162.427 48.1002 163.919 48.723 165.478 48.7337C167.038 48.7445 168.538 48.1424 169.654 47.0582C170.681 45.8473 171.218 44.2996 171.163 42.7159C171.198 41.9186 171.071 41.1224 170.787 40.3758C170.504 39.6293 170.07 38.948 169.514 38.3736C168.976 37.8342 168.332 37.4102 167.623 37.1278C166.914 36.8455 166.155 36.7107 165.391 36.7319C164.627 36.7053 163.866 36.8375 163.156 37.1202C162.447 37.4029 161.804 37.8297 161.269 38.3736C160.734 38.9591 160.321 39.6443 160.054 40.3896C159.786 41.1349 159.67 41.9256 159.711 42.7159H159.678Z" fill="#1F1F1F"/>
<path d="M179.902 52.6564H179.416V32.7755H179.812C180.669 32.7755 181.62 32.7755 182.664 32.7755H185.723C189.466 32.7755 192.269 33.703 194.133 35.5581C195.058 36.4842 195.783 37.5889 196.264 38.8043C196.744 40.0197 196.97 41.3202 196.928 42.6257C196.967 43.9825 196.721 45.3325 196.205 46.5891C195.69 47.8457 194.917 48.9813 193.935 49.923C191.956 51.8328 189.142 52.7877 185.492 52.7877C184.75 52.7877 183.926 52.7877 183.019 52.7877C182.112 52.7877 181.073 52.744 179.902 52.6564ZM185.674 36.9536C185.123 36.944 184.572 36.9714 184.025 37.0357V48.3962C184.574 48.4345 185.124 48.4537 185.674 48.4537C187.393 48.5546 189.087 47.9966 190.406 46.8941C190.989 46.3356 191.444 45.6586 191.74 44.9093C192.035 44.1599 192.166 43.3558 192.121 42.5518C192.16 41.7814 192.024 41.0122 191.723 40.3015C191.422 39.5908 190.963 38.9571 190.381 38.4475C189.046 37.3924 187.368 36.8609 185.665 36.9536H185.674Z" fill="#1F1F1F"/>
<path d="M210.251 32.7755H215.198L208.124 44.5547V52.6482H203.556V44.5547L196.54 32.7755H201.759L206.038 40.3027L210.251 32.7755Z" fill="#1F1F1F"/>
<path d="M216.666 49.9394C216.666 49.589 216.74 49.2425 216.882 48.9218C217.024 48.6011 217.231 48.3131 217.49 48.0761C217.764 47.806 218.09 47.5941 218.449 47.453C218.807 47.3119 219.191 47.2446 219.576 47.2552C219.932 47.252 220.285 47.3234 220.612 47.4648C220.939 47.6062 221.232 47.8145 221.472 48.0761C221.729 48.3155 221.934 48.604 222.075 48.9241C222.217 49.2443 222.292 49.5896 222.297 49.9394C222.311 50.6915 222.04 51.4214 221.538 51.9833C221.298 52.2515 221.001 52.4639 220.669 52.6057C220.337 52.7475 219.978 52.8153 219.617 52.8042C219.23 52.8198 218.844 52.7549 218.483 52.6136C218.123 52.4723 217.796 52.2576 217.523 51.9833C217.25 51.7169 217.034 51.3988 216.887 51.0477C216.739 50.6967 216.664 50.3199 216.666 49.9394ZM221.744 45.0143H217.185V32.7755H221.744V45.0143Z" fill="#1F1F1F"/>
</svg>
