<svg width="140" height="159" viewBox="0 0 140 159" fill="none" xmlns="http://www.w3.org/2000/svg">
<path d="M67.5827 155.838C103.251 155.838 132.165 126.923 132.165 91.255C132.165 55.587 103.251 26.6724 67.5827 26.6724C31.9146 26.6724 3 55.587 3 91.255C3 126.923 31.9146 155.838 67.5827 155.838Z" fill="white" stroke="#1F1F1F" stroke-width="6" stroke-miterlimit="10"/>
<path d="M39.1061 26.6799L33.0605 10.6941C32.7129 9.77806 32.7074 8.76737 33.0452 7.84766C33.3829 6.92795 34.0411 6.16097 34.8989 5.6876L38.8372 3.50772C39.6499 3.05858 40.5917 2.90089 41.5064 3.06082C42.421 3.22075 43.2534 3.68868 43.8655 4.38693L55.3171 17.4154" fill="white"/>
<path d="M39.1061 26.6799L33.0605 10.6941C32.7129 9.77806 32.7074 8.76737 33.0452 7.84766C33.3829 6.92795 34.0411 6.16097 34.8989 5.6876L38.8372 3.50772C39.6499 3.05858 40.5917 2.90089 41.5064 3.06082C42.421 3.22075 43.2534 3.68868 43.8655 4.38693L55.3171 17.4154" stroke="#1F1F1F" stroke-width="6" stroke-miterlimit="10"/>
<path d="M76.4476 132.913C109.407 132.913 136.126 106.194 136.126 73.2351C136.126 40.2759 109.407 13.5571 76.4476 13.5571C43.4884 13.5571 16.7697 40.2759 16.7697 73.2351C16.7697 106.194 43.4884 132.913 76.4476 132.913Z" fill="white" stroke="#1F1F1F" stroke-width="6" stroke-miterlimit="10"/>
<path d="M117.596 74.2085C117.596 82.347 115.183 90.3027 110.662 97.0696C106.14 103.837 99.7135 109.111 92.1945 112.225C84.6755 115.34 76.4018 116.154 68.4197 114.567C60.4376 112.979 53.1056 109.06 47.3508 103.305C41.596 97.5504 37.6769 90.2184 36.0892 82.2362C34.5015 74.2541 35.3164 65.9805 38.4308 58.4615C41.5453 50.9425 46.8194 44.5159 53.5863 39.9944C60.3533 35.4729 68.309 33.0596 76.4475 33.0596" fill="white"/>
<path d="M117.596 74.2092C117.771 78.2855 117.367 82.3661 116.397 86.3293C115.315 90.313 113.681 94.1259 111.544 97.6574C109.284 101.155 106.564 104.332 103.456 107.104C100.247 109.811 96.6762 112.058 92.8475 113.781C88.9638 115.457 84.8604 116.568 80.6619 117.08C78.5588 117.283 76.4443 117.344 74.333 117.262L72.7562 117.175C72.4946 117.175 72.2258 117.175 71.9642 117.131L71.1795 117.022L68.0332 116.579C63.8586 115.748 59.8223 114.331 56.0438 112.372C52.3102 110.331 48.8669 107.799 45.8056 104.844C42.8489 101.784 40.317 98.3402 38.2777 94.6056C36.3198 90.8307 34.9012 86.7998 34.0633 82.6308L33.6201 79.4845L33.5183 78.6997C33.5183 78.4381 33.5183 78.1693 33.482 77.9077L33.4166 76.3237C33.3371 74.2122 33.4002 72.0977 33.6055 69.9947C34.104 65.8008 35.2002 61.6998 36.8608 57.8164C38.5855 53.9884 40.8328 50.4181 43.5385 47.2077C46.311 44.1012 49.4881 41.3811 52.9847 39.1203C56.5196 36.9739 60.3375 35.3328 64.3274 34.2446C68.2905 33.2747 72.3711 32.8711 76.4475 33.0457L73.432 33.3654C72.9301 33.4024 72.4305 33.4655 71.9351 33.5543L70.4819 33.8668L69.0286 34.1647L68.302 34.31L67.5754 34.528L64.7125 35.4072C57.2152 38.0288 50.6313 42.7536 45.7475 49.017C43.4008 52.1183 41.4709 55.514 40.0071 59.1171L39.0698 61.8565C38.9971 62.0817 38.9099 62.3143 38.8373 62.5395L38.6701 63.2661L38.3431 64.6758L38.0016 66.0782C37.8926 66.5505 37.8563 67.0301 37.7836 67.5314C37.6601 68.4833 37.5003 69.4352 37.3985 70.3944C37.2696 72.3153 37.2696 74.2428 37.3985 76.1638L37.493 77.617C37.493 77.8568 37.493 78.0966 37.5439 78.3437L37.6601 79.0703L38.1324 81.9114C38.9537 85.6567 40.2708 89.2757 42.0489 92.6728C43.9201 96.0151 46.224 99.0959 48.901 101.836C51.639 104.517 54.72 106.823 58.0638 108.695C61.4618 110.473 65.0804 111.792 68.8252 112.619L71.6663 113.091L72.3929 113.207C72.6327 113.207 72.8725 113.207 73.1195 113.258L74.5728 113.353C76.4938 113.482 78.4213 113.482 80.3422 113.353C81.3014 113.251 82.2533 113.091 83.2051 112.967C83.6774 112.895 84.1643 112.858 84.6584 112.749L86.0681 112.415L87.4777 112.088L88.2043 111.921C88.4369 111.848 88.6621 111.769 88.8874 111.689L91.634 110.751C95.2366 109.286 98.6321 107.356 101.734 105.011C104.801 102.566 107.533 99.7266 109.858 96.5675C112.14 93.3287 113.98 89.8001 115.329 86.075L116.201 83.2121L116.419 82.4854L116.565 81.7588L116.863 80.3056L117.168 78.8523C117.257 78.357 117.32 77.8573 117.357 77.3555L117.596 74.2092Z" fill="#1F1F1F"/>
<path d="M76.4477 47.3232C81.7651 47.3232 86.9631 48.9 91.3844 51.8542C95.8056 54.8084 99.2516 59.0073 101.286 63.9199C103.321 68.8326 103.854 74.2383 102.816 79.4535C101.779 84.6687 99.2184 89.4592 95.4584 93.2192C91.6985 96.9792 86.908 99.5397 81.6928 100.577C76.4775 101.614 71.0718 101.082 66.1592 99.0472C61.2466 97.0123 57.0477 93.5663 54.0935 89.1451C51.1393 84.7238 49.5625 79.5259 49.5625 74.2085" fill="white"/>
<path d="M76.4474 47.3234C79.1262 47.1261 81.8194 47.3244 84.4403 47.9119C87.0829 48.5668 89.6197 49.5918 91.9754 50.9565C94.3214 52.4222 96.4578 54.1993 98.3262 56.2391C100.155 58.3545 101.677 60.7176 102.846 63.2583C103.986 65.8399 104.742 68.5743 105.091 71.3748C105.383 74.1955 105.295 77.0427 104.829 79.84C104.285 82.6385 103.343 85.3447 102.032 87.8765C100.669 90.3829 98.9751 92.6949 96.9964 94.7504C94.9502 96.7479 92.6428 98.4589 90.1371 99.8368C87.5998 101.138 84.8919 102.074 82.0933 102.62C79.296 103.086 76.4488 103.174 73.6281 102.881C70.8193 102.531 68.0772 101.77 65.4899 100.622C62.9495 99.449 60.5867 97.9251 58.4706 96.0946C56.4311 94.2233 54.6541 92.0845 53.1881 89.7366C51.8238 87.3807 50.7988 84.8439 50.1435 82.2015C49.5582 79.5802 49.3623 76.887 49.5622 74.2086C49.7009 75.5184 49.9169 76.8189 50.2089 78.1033L50.4269 79.0552L50.5359 79.5275L50.6885 79.9926L51.3061 81.8382C52.233 84.2287 53.4717 86.4863 54.9901 88.5522C58.0012 92.5848 62.0998 95.6751 66.8051 97.4607L68.5635 98.0347C68.8542 98.1396 69.1531 98.2198 69.4573 98.2745L70.3583 98.4707L71.252 98.6814C71.5499 98.7541 71.8624 98.7686 72.1603 98.8122C72.7707 98.8849 73.3738 98.9866 73.9841 99.0447C78.8842 99.4082 83.7854 98.3539 88.1025 96.0074C92.3969 93.6596 95.9275 90.129 98.2753 85.8347C99.4058 83.679 100.251 81.3854 100.789 79.0116C101.278 76.6224 101.449 74.1793 101.298 71.7453C101.24 71.135 101.138 70.5319 101.066 69.9215C101.022 69.6163 101 69.3111 100.935 69.0132L100.731 68.1122L100.535 67.2112C100.48 66.9071 100.4 66.6081 100.295 66.3174L99.7213 64.559C97.9321 59.8457 94.8338 55.7415 90.791 52.7295C88.7248 51.2115 86.4673 49.9728 84.077 49.0455L82.2023 48.4424L81.7373 48.2898L81.2649 48.1808L80.3131 47.9628C79.0381 47.6744 77.7473 47.4609 76.4474 47.3234Z" fill="#1F1F1F"/>
<path d="M76.4475 87.6367C73.7914 87.6381 71.1945 86.8518 68.9853 85.3772C66.7761 83.9026 65.0538 81.8059 64.0364 79.3523C63.0189 76.8988 62.752 74.1986 63.2693 71.5934C63.7866 68.9881 65.0649 66.5948 66.9426 64.7161C68.8202 62.8374 71.2129 61.5578 73.8179 61.0391C76.4229 60.5204 79.1232 60.7859 81.5773 61.802C84.0313 62.8181 86.1289 64.5392 87.6048 66.7476C89.0806 68.956 89.8683 71.5525 89.8683 74.2086" fill="white"/>
<path d="M76.4475 87.6365C75.1 87.8555 73.7259 87.8555 72.3784 87.6365C70.9903 87.3749 69.6485 86.9097 68.3964 86.2559C67.1332 85.5596 65.9779 84.6833 64.9668 83.6546C63.9612 82.5716 63.1191 81.3476 62.4672 80.0214C61.8313 78.6629 61.398 77.2185 61.181 75.7343C60.7614 72.6919 61.2971 69.5942 62.7142 66.8695C64.1389 64.1273 66.3777 61.8936 69.1231 60.4751C70.4994 59.7849 71.9676 59.2955 73.4828 59.0219C74.978 58.7813 76.4997 58.7544 78.0025 58.9419C80.9433 59.3597 83.681 60.6829 85.8355 62.7277C86.8716 63.7376 87.7552 64.893 88.4586 66.1574C89.1094 67.4101 89.5721 68.7518 89.832 70.1393C90.0511 71.4868 90.0511 72.8609 89.832 74.2084C89.6077 72.9317 89.2422 71.6839 88.742 70.4881C88.2132 69.3604 87.5416 68.3054 86.7438 67.349C85.9552 66.4426 85.0598 65.635 84.0771 64.9439C83.1029 64.302 82.0535 63.7822 80.9526 63.3962C78.7924 62.6696 76.4726 62.5589 74.2531 63.0765C72.0837 63.5847 70.0986 64.6867 68.52 66.2591C66.944 67.8361 65.8393 69.8216 65.3301 71.9922C64.8125 74.2117 64.9232 76.5315 65.6498 78.6917C66.0355 79.7928 66.5553 80.8422 67.1975 81.8162C67.8913 82.799 68.7013 83.6944 69.6099 84.4829C70.5686 85.2813 71.626 85.9529 72.7562 86.4811C73.94 87.0019 75.178 87.3894 76.4475 87.6365Z" fill="#1F1F1F"/>
</svg>
