<svg width="38" height="44" viewBox="0 0 38 44" fill="none" xmlns="http://www.w3.org/2000/svg">
<path d="M19.7168 28.3993C21.7701 28.3993 23.4406 26.7288 23.4406 24.6754C23.4406 22.6221 21.7701 20.9515 19.7168 20.9515C19.7088 20.9515 19.7008 20.9517 19.6929 20.952L16.6509 20.952C16.6512 20.952 16.6506 20.952 16.6509 20.952C16.288 20.952 15.9929 21.2462 15.9929 21.6091L15.9929 29.7136H15.3358C14.9728 29.7136 14.6786 30.0078 14.6786 30.3707C14.6786 30.7337 14.9728 31.0279 15.3358 31.0279H15.9929L15.9929 34.7518C15.9929 35.1147 16.2871 35.4089 16.6501 35.4089C17.013 35.4089 17.3072 35.1147 17.3072 34.7518L17.3072 31.0279H19.7168C20.0797 31.0279 20.3739 30.7337 20.3739 30.3707C20.3739 30.0078 20.0797 29.7136 19.7168 29.7136H17.3072V28.3993H19.7168ZM19.7168 22.2663C19.7239 22.2663 19.731 22.2662 19.738 22.2659C21.0569 22.2773 22.1263 23.3538 22.1263 24.6754C22.1263 26.004 21.0454 27.085 19.7168 27.085H17.3072L17.3072 22.2663H19.7168Z" fill="#11AC5F"/>
<path fill-rule="evenodd" clip-rule="evenodd" d="M19.6856 20.5164C19.6965 20.5161 19.7069 20.5159 19.7167 20.5159C22.0107 20.5159 23.8762 22.3815 23.8762 24.6754C23.8762 26.9694 22.0107 28.8349 19.7167 28.8349H17.7428V29.278H19.7167C20.3202 29.278 20.8095 29.7672 20.8095 30.3708C20.8095 30.9743 20.3202 31.4635 19.7167 31.4635H17.7428V34.7518C17.7428 35.3553 17.2535 35.8446 16.65 35.8446C16.0465 35.8446 15.5572 35.3553 15.5572 34.7518L15.5572 31.4635H15.3357C14.7322 31.4635 14.2429 30.9743 14.2429 30.3708C14.2429 29.7672 14.7322 29.278 15.3357 29.278H15.5573L15.5573 21.6091C15.5573 21.0056 16.0465 20.5163 16.65 20.5163C16.6522 20.5163 16.6543 20.5163 16.6562 20.5164L19.6856 20.5164ZM19.7167 21.3872C19.7134 21.3872 19.7111 21.3872 19.7096 21.3873L19.7012 21.3876L16.6509 21.3876C16.6495 21.3876 16.6481 21.3876 16.6467 21.3876C16.5259 21.3894 16.4285 21.4879 16.4285 21.6091L16.4285 30.1492H15.3357C15.2134 30.1492 15.1142 30.2484 15.1142 30.3708C15.1142 30.4931 15.2134 30.5923 15.3357 30.5923H16.4285L16.4285 34.7518C16.4285 34.8741 16.5277 34.9733 16.65 34.9733C16.7723 34.9733 16.8715 34.8741 16.8715 34.7518L16.8715 30.5923H19.7167C19.8391 30.5923 19.9383 30.4931 19.9383 30.3708C19.9383 30.2484 19.8391 30.1492 19.7167 30.1492H16.8715V27.9637H19.7167C21.5295 27.9637 23.005 26.4882 23.005 24.6754C23.005 22.8627 21.5295 21.3872 19.7167 21.3872ZM19.733 21.8303L19.7417 21.8303C21.2995 21.8438 22.5619 23.1145 22.5619 24.6754C22.5619 26.2446 21.2859 27.5206 19.7167 27.5206H16.8715L16.8715 21.8307H19.7167C19.7185 21.8307 19.721 21.8306 19.7243 21.8305L19.733 21.8303ZM19.7415 22.7016C19.7336 22.7018 19.7253 22.7019 19.7167 22.7019H17.7428L17.7428 26.6494H19.7167C20.8048 26.6494 21.6907 25.7635 21.6907 24.6754C21.6907 23.5956 20.8182 22.7149 19.7415 22.7016Z" fill="#11AC5F"/>
<path d="M34.9264 24.9332C33.8287 22.4066 32.3127 19.9584 30.3959 17.667C28.0784 14.879 25.7696 13.0145 24.5934 12.152L29.0368 3.90997C29.2546 3.50048 29.1849 2.99516 28.8451 2.6728C27.6951 1.54889 26.4753 1 25.1162 1C23.8703 1 22.7289 1.47047 21.7357 1.88867C20.9516 2.21104 20.211 2.52469 19.6099 2.52469C19.4269 2.52469 19.2701 2.49855 19.1133 2.43756C17.0397 1.67957 15.4453 1.2091 13.9032 1.2091C11.9516 1.2091 10.2875 1.99322 8.65828 3.66602C8.31849 4.01452 8.26621 4.56341 8.5363 4.97289L13.3282 12.213C12.1433 13.0929 9.87802 14.94 7.60407 17.667C5.69603 19.9584 4.17135 22.4066 3.07357 24.9332C1.697 28.1133 1 31.4327 1 34.7957C1 39.2652 4.64182 42.9071 9.11133 42.9071H28.8887C33.3582 42.9071 37 39.2652 37 34.7957C37 31.4327 36.303 28.1133 34.9264 24.9332ZM10.7667 4.53727C11.7773 3.66602 12.7444 3.28267 13.9032 3.28267C15.1404 3.28267 16.5344 3.70087 18.3901 4.38916C18.7735 4.52856 19.183 4.59826 19.6012 4.59826C20.6205 4.59826 21.5963 4.19748 22.5286 3.80542C23.4259 3.43078 24.2798 3.07357 25.1075 3.07357C25.5082 3.07357 26.0745 3.14327 26.789 3.6486L22.607 11.4201H15.3233L10.7667 4.53727ZM28.8887 40.8161H9.11133C5.79187 40.8161 3.091 38.1152 3.091 34.7957C3.091 29.211 5.13843 23.9138 9.1636 19.0523C11.7076 15.9768 14.2953 14.0687 15.0794 13.5111H22.9032C23.696 14.06 26.2749 15.9768 28.819 19.0523C32.8529 23.9138 34.8916 29.2023 34.8916 34.7957C34.909 38.1152 32.2081 40.8161 28.8887 40.8161Z" fill="black" stroke="black"/>
</svg>
