<svg width="46" height="46" viewBox="0 0 46 46" fill="none" xmlns="http://www.w3.org/2000/svg">
<path d="M45.804 1.38659C45.7346 0.760135 45.24 0.265292 44.6132 0.195804C33.9477 -0.988661 24.856 3.27752 17.4399 10.9111C15.3175 13.0958 13.4767 15.4082 11.9053 17.6399C9.246 17.5318 6.29745 18.7349 4.20703 20.8251L0.394726 24.6372C-0.0366243 25.0685 -0.124368 25.736 0.18063 26.2642C0.485628 26.7924 1.10721 27.0496 1.69685 26.8921C2.58131 26.6545 4.01856 26.3783 5.3993 26.314C5.904 26.2905 6.32342 26.2979 6.67194 26.3246C5.83065 27.9425 5.1859 29.2978 4.97216 29.6372C4.63733 30.17 4.71489 30.8631 5.15993 31.3081L7.36582 33.5138C4.15544 37.892 4.10244 40.1342 4.11367 40.4518C4.13719 41.1246 4.6619 41.7549 5.53091 41.7549C6.28341 41.7549 8.44156 41.4355 12.3704 38.5181L14.6907 40.8382C15.1389 41.2864 15.8391 41.3615 16.3726 41.0189C16.7355 40.7856 18.0113 40.1679 19.5412 39.3684C19.5665 40.5087 19.4117 42.1831 19.0758 44.4527C18.8849 45.74 20.4499 46.5149 21.3621 45.6031L25.1744 41.791C27.1402 39.8254 28.2801 36.9058 28.1959 34.1669C30.5471 32.5241 32.9931 30.5862 35.2769 28.3468C42.8383 20.9322 46.9735 11.9099 45.804 1.38659ZM43.2258 2.77355C43.4409 5.67944 43.2114 8.49618 42.5428 11.222C40.8823 10.6991 39.259 9.67187 37.793 8.20629C36.3217 6.73475 35.2923 5.10493 34.7715 3.4386C37.4964 2.77987 40.3151 2.55666 43.2258 2.77355ZM5.22346 23.6208L6.11283 22.7312C7.18858 21.6558 8.58757 20.8813 9.97884 20.5331C9.25197 21.6867 8.60406 22.7884 8.03267 23.8051C7.14997 23.6103 6.16864 23.5742 5.22346 23.6208ZM7.774 30.1103C8.06567 29.5347 8.4184 28.8132 9.06595 27.5897L10.8401 29.3642C10.1799 30.0724 9.58399 30.7452 9.047 31.3828L7.774 30.1103ZM14.365 29.5947C15.347 28.6131 16.2887 28.4338 17.4585 28.4085C17.4329 29.5484 17.25 30.522 16.2711 31.5008C12.0868 35.6848 9.21862 37.5533 7.5034 38.3871C8.3496 36.6391 10.2231 33.7363 14.365 29.5947ZM15.8809 38.2166L14.491 36.8265C15.1256 36.2874 15.7963 35.6897 16.5038 35.0271L18.3924 36.9156C17.1507 37.5786 16.6326 37.8281 15.8809 38.2166ZM23.2679 39.885L22.189 40.9642C22.2763 39.6569 22.2462 38.7044 22.1226 37.9695C23.1138 37.4115 24.1902 36.7787 25.3183 36.0709C24.9968 37.4957 24.2741 38.8792 23.2679 39.885ZM20.8461 35.5574L18.4296 33.1408C20.2179 31.1733 20.1512 29.2775 20.1512 27.0626C20.1512 26.3182 19.5479 25.715 18.8034 25.715C16.7341 25.715 14.7426 25.6041 12.7249 27.4367L10.4172 25.1292C16.7186 14.0802 24.0024 7.085 32.1862 4.20438C32.8341 6.30062 34.0951 8.32035 35.8872 10.1123C37.6709 11.8962 39.6813 13.154 41.7685 13.8043C38.8709 21.9426 31.877 29.2213 20.8461 35.5574Z" fill="black"/>
<path d="M33.9522 12.0478C31.2214 9.3174 26.7782 9.3174 24.0478 12.0478C21.3174 14.7785 21.3174 19.2217 24.0478 21.9521C26.7782 24.6825 31.2214 24.6828 33.9522 21.9521C36.6826 19.2217 36.6826 14.7785 33.9522 12.0478ZM31.9713 19.9712C30.3329 21.6096 27.6667 21.6096 26.0287 19.9712C24.3903 18.3328 24.3903 15.667 26.0287 14.0286C27.6667 12.3906 30.3326 12.3903 31.9713 14.0286C33.6097 15.667 33.6097 18.3328 31.9713 19.9712Z" fill="#11AC5F"/>
</svg>
