<svg width="41" height="36" viewBox="0 0 41 36" fill="none" xmlns="http://www.w3.org/2000/svg">
<path d="M37.0075 29.6379L26.7191 36C23.7503 32.6897 22.2659 28.4483 22.2659 23.2759C22.2659 12.7241 26.6167 4.96552 35.3184 0L41 5.58621C36.1885 8.89655 33.7828 13.8621 33.7828 20.4828C33.7828 24.4138 34.8577 27.4655 37.0075 29.6379ZM14.7416 29.6379L4.45318 36C1.48439 32.6897 0 28.4483 0 23.2759C0 12.7241 4.35081 4.96552 13.0524 0L18.7341 5.58621C13.9226 8.89655 11.5169 13.8621 11.5169 20.4828C11.5169 24.4138 12.5918 27.4655 14.7416 29.6379Z" fill="#B3B3B3"/>
</svg>
