<svg width="42" height="49" viewBox="0 0 42 49" fill="none" xmlns="http://www.w3.org/2000/svg">
<path d="M40.976 13.7522L40.9745 13.7156C40.9541 13.2642 40.9405 12.7865 40.9322 12.2551C40.8939 9.66368 38.8338 7.5201 36.242 7.37524C30.8383 7.07367 26.658 5.31162 23.0862 1.8302L23.0557 1.80115C21.8907 0.732949 20.1333 0.732949 18.9679 1.80115L18.9375 1.8302C15.3657 5.31162 11.1854 7.07367 5.78161 7.3756C3.19017 7.5201 1.12979 9.66368 1.09142 12.2555C1.08353 12.7833 1.06955 13.2609 1.04911 13.7156L1.04696 13.8006C0.941894 19.3108 0.811372 26.1686 3.10555 32.3932C4.36703 35.8162 6.27752 38.7916 8.78362 41.2375C11.6379 44.0229 15.3764 46.2343 19.8952 47.8099C20.0422 47.8611 20.195 47.9027 20.3506 47.9339C20.5701 47.9777 20.7909 47.9995 21.0118 47.9995C21.2327 47.9995 21.454 47.9777 21.673 47.9339C21.8287 47.9027 21.9825 47.8608 22.1302 47.8091C26.6436 46.2307 30.3782 44.0183 33.23 41.2332C35.735 38.7866 37.6455 35.8104 38.9081 32.3867C41.2108 26.1435 41.0807 19.2728 40.976 13.7522ZM36.3206 31.4326C33.9009 37.9931 28.9615 42.4986 21.2202 45.2059C21.1926 45.2152 21.1631 45.2234 21.1327 45.2295C21.0527 45.2453 20.9713 45.2453 20.8903 45.2292C20.8601 45.2231 20.8307 45.2152 20.8035 45.2059C13.0539 42.5036 8.11129 38.0006 5.6934 31.4397C3.57887 25.7021 3.69864 19.4069 3.80442 13.8533L3.80513 13.8225C3.82665 13.3452 3.84099 12.8453 3.84888 12.296C3.86609 11.1453 4.78262 10.1933 5.93544 10.1291C8.99339 9.95843 11.6799 9.36749 14.1483 8.3226C16.6135 7.27914 18.803 5.80825 20.8411 3.82604C20.9448 3.73855 21.0792 3.73819 21.1825 3.82604C23.221 5.80825 25.4105 7.27914 27.8754 8.3226C30.3438 9.36749 33.0303 9.95843 36.0886 10.1291C37.2414 10.1933 38.1579 11.1453 38.1748 12.2964C38.183 12.8486 38.1974 13.3484 38.2189 13.8225C38.3243 19.3826 38.4412 25.6828 36.3206 31.4326Z" fill="#1F1F1F" stroke="black" stroke-width="0.5"/>
<path d="M21.0111 12.7876C14.5523 12.7876 9.2981 18.0422 9.2981 24.5006C9.2981 30.9593 14.5523 36.2139 21.0111 36.2139C27.4694 36.2139 32.724 30.9593 32.724 24.5006C32.724 18.0422 27.4694 12.7876 21.0111 12.7876ZM21.0111 33.4557C16.0731 33.4557 12.0559 29.4385 12.0559 24.5006C12.0559 19.5626 16.0731 15.5454 21.0111 15.5454C25.9487 15.5454 29.9658 19.5626 29.9658 24.5006C29.9658 29.4385 25.9487 33.4557 21.0111 33.4557Z" fill="#11AC5F"/>
<path d="M24.3774 20.8643L18.937 26.3046L17.4604 24.828C16.9218 24.2894 16.0487 24.2894 15.5101 24.828C14.9719 25.3666 14.9719 26.2397 15.5101 26.778L17.9621 29.2299C18.2314 29.4992 18.5842 29.6337 18.937 29.6337C19.2899 29.6337 19.6427 29.4992 19.912 29.2299L26.3277 22.8142C26.8659 22.2757 26.8659 21.4025 26.3277 20.8643C25.7891 20.3253 24.916 20.3253 24.3774 20.8643Z" fill="#11AC5F"/>
</svg>
