<svg width="331" height="208" viewBox="0 0 331 208" fill="none" xmlns="http://www.w3.org/2000/svg">
<path d="M36.4487 35.0928L158.438 3.66764C161.357 2.87915 164.419 2.78769 167.38 3.40062C170.34 4.01356 173.115 5.31377 175.482 7.19657C226.884 49.2261 275.352 90.2764 326.755 132.315C228.558 99.337 134.574 68.0265 36.4487 35.0928Z" fill="#FCFCFC" stroke="#1F1F1F" stroke-width="6" stroke-linecap="round" stroke-linejoin="round"/>
<path d="M23.1242 60.466L34.4393 36.5575C34.7047 35.9973 35.1662 35.554 35.7363 35.3117C36.3064 35.0694 36.9455 35.0449 37.5325 35.243L325.697 132.006C326.11 132.144 326.48 132.387 326.771 132.71C327.063 133.033 327.267 133.426 327.362 133.851C327.458 134.276 327.443 134.718 327.318 135.135C327.193 135.552 326.962 135.93 326.649 136.232L303.032 159.064C302.695 159.391 302.275 159.617 301.817 159.719C301.36 159.82 300.883 159.792 300.441 159.638L24.5783 63.9068C24.2475 63.7893 23.9447 63.6042 23.6892 63.3632C23.4337 63.1222 23.2312 62.8306 23.0944 62.507C22.9576 62.1833 22.8897 61.8347 22.8948 61.4834C22.8999 61.132 22.9781 60.7855 23.1242 60.466Z" fill="#FCFCFC" stroke="#1F1F1F" stroke-width="6" stroke-linecap="round" stroke-linejoin="round"/>
<path d="M283.248 165.752L291.408 177.865" stroke="#1F1F1F" stroke-width="6" stroke-linecap="round" stroke-linejoin="round"/>
<path d="M279.952 173.144C282.006 173.841 286.747 175.747 290.395 177.159C290.795 177.307 291.152 177.555 291.43 177.879C291.709 178.203 291.902 178.592 291.99 179.011C292.078 179.429 292.058 179.863 291.934 180.272C291.809 180.681 291.583 181.051 291.276 181.349L267.553 204.287C267.216 204.613 266.796 204.839 266.339 204.94C265.881 205.041 265.405 205.014 264.962 204.861C173.34 173.039 96.4699 142.028 5.068 110.232C4.65676 110.084 4.28113 109.851 3.96533 109.549C3.64954 109.246 3.40059 108.881 3.23453 108.476C3.06847 108.071 2.989 107.636 3.00122 107.198C3.01345 106.761 3.11711 106.331 3.30553 105.936L14.2946 82.6097C14.5582 82.0498 15.0176 81.606 15.5859 81.3622C16.1542 81.1184 16.7921 81.0914 17.3789 81.2864C31.4787 85.9622 52.7253 92.923 65.5297 97.3695" fill="#FCFCFC"/>
<path d="M279.952 173.144C282.006 173.841 286.747 175.747 290.395 177.159C290.795 177.307 291.152 177.555 291.43 177.879C291.709 178.203 291.902 178.592 291.99 179.011C292.078 179.429 292.058 179.863 291.934 180.272C291.809 180.681 291.583 181.051 291.276 181.349L267.553 204.287C267.216 204.613 266.796 204.839 266.339 204.94C265.881 205.041 265.405 205.014 264.962 204.861C173.34 173.039 96.4699 142.028 5.068 110.232C4.65676 110.084 4.28113 109.851 3.96533 109.549C3.64954 109.246 3.40059 108.881 3.23453 108.476C3.06847 108.071 2.989 107.636 3.00122 107.198C3.01345 106.761 3.11711 106.331 3.30553 105.936L14.2946 82.6097C14.5582 82.0498 15.0176 81.606 15.5859 81.3622C16.1542 81.1184 16.7921 81.0914 17.3789 81.2864C31.4787 85.9622 52.7253 92.923 65.5297 97.3695" stroke="#1F1F1F" stroke-width="6" stroke-linecap="round" stroke-linejoin="round"/>
<path d="M256.362 144.313L44.2831 70.7703C43.7385 70.5779 43.1445 70.5779 42.5999 70.7703L16.9207 81.1806L279.952 173.145" fill="#FCFCFC"/>
<path d="M256.362 144.313L44.2831 70.7703C43.7385 70.5779 43.1445 70.5779 42.5999 70.7703L16.9207 81.1806L279.952 173.145" stroke="#1F1F1F" stroke-width="6" stroke-linecap="round" stroke-linejoin="round"/>
<path d="M77.2413 82.2041C76.8946 82.0876 76.5267 82.0478 76.1631 82.0874C75.7995 82.127 75.4488 82.245 75.1352 82.4335C72.7118 83.845 66.878 87.8239 66.2347 93.9025C65.5914 99.9811 68.7638 105.892 72.6325 110.091C80.2199 118.332 91.9139 121.64 103.15 122.24C108.658 122.599 114.189 122.258 119.611 121.225C126.053 119.911 132.257 117.996 138.76 118.473C149.785 119.284 159.663 124.772 167.674 131.953C178.478 141.658 186.832 154.838 200.976 160.114C205.1 161.649 210.026 162.337 214.106 159.92C219.332 156.823 221.35 149.633 227.052 147.322C232.753 145.01 238.508 148.786 242.447 151.989C248.219 156.7 253.127 162.399 259.067 166.898C264.028 170.666 269.871 173.586 276.295 173.789C277.547 173.894 278.805 173.682 279.952 173.171C280.893 172.607 281.684 171.823 282.255 170.885C282.826 169.948 283.161 168.885 283.23 167.79C283.645 163.617 278.102 154.556 276.401 151.909C276.095 151.428 275.635 151.064 275.097 150.877L77.2413 82.2041Z" fill="#FCFCFC" stroke="#1F1F1F" stroke-width="6" stroke-linecap="round" stroke-linejoin="round"/>
</svg>
