<svg width="252" height="159" viewBox="0 0 252 159" fill="none" xmlns="http://www.w3.org/2000/svg">
<path d="M222.795 27.2143L130.647 3.50374C128.443 2.90881 126.129 2.83981 123.893 3.30227C121.657 3.76474 119.561 4.74576 117.773 6.16635C78.9455 37.8781 42.3343 68.851 3.50632 100.569C77.6808 75.6872 148.673 52.0632 222.795 27.2143Z" fill="#FCFCFC" stroke="#1F1F1F" stroke-width="6" stroke-linecap="round" stroke-linejoin="round"/>
<path d="M232.859 46.3585L224.312 28.3193C224.112 27.8966 223.763 27.5621 223.333 27.3793C222.902 27.1965 222.419 27.1781 221.976 27.3275L4.30508 100.336C3.99342 100.441 3.7139 100.623 3.49355 100.867C3.27318 101.111 3.11943 101.408 3.04716 101.728C2.97488 102.049 2.98651 102.382 3.08093 102.697C3.17537 103.012 3.34938 103.297 3.58618 103.525L21.4259 120.752C21.68 120.998 21.9975 121.169 22.3431 121.246C22.6886 121.322 23.0486 121.301 23.3829 121.185L231.761 48.9546C232.011 48.866 232.24 48.7263 232.433 48.5445C232.626 48.3626 232.779 48.1426 232.882 47.8984C232.985 47.6543 233.037 47.3912 233.033 47.1261C233.029 46.861 232.97 46.5996 232.859 46.3585Z" fill="#FCFCFC" stroke="#1F1F1F" stroke-width="6" stroke-linecap="round" stroke-linejoin="round"/>
<path d="M36.37 125.798L30.206 134.937" stroke="#1F1F1F" stroke-width="6" stroke-linecap="round" stroke-linejoin="round"/>
<path d="M38.8592 131.376C37.3082 131.902 33.727 133.34 30.9712 134.405C30.6687 134.517 30.3997 134.704 30.189 134.948C29.9784 135.193 29.8331 135.486 29.7666 135.802C29.7001 136.118 29.7147 136.445 29.8089 136.754C29.9032 137.062 30.074 137.342 30.3055 137.566L48.2251 154.873C48.4796 155.119 48.7971 155.29 49.1425 155.366C49.4879 155.442 49.8477 155.422 50.1821 155.306C119.391 131.296 177.456 107.898 246.499 83.9081C246.809 83.7961 247.093 83.6204 247.331 83.3921C247.57 83.1638 247.758 82.888 247.883 82.5826C248.009 82.2772 248.069 81.9488 248.06 81.6188C248.05 81.2887 247.972 80.9643 247.83 80.6663L239.529 63.0664C239.33 62.644 238.983 62.3091 238.554 62.1252C238.124 61.9412 237.643 61.9208 237.199 62.068C226.549 65.5959 210.5 70.8479 200.828 74.2028" fill="#FCFCFC"/>
<path d="M38.8592 131.376C37.3082 131.902 33.727 133.34 30.9712 134.405C30.6687 134.517 30.3997 134.704 30.189 134.948C29.9784 135.193 29.8331 135.486 29.7666 135.802C29.7002 136.118 29.7147 136.445 29.809 136.754C29.9032 137.062 30.074 137.342 30.3055 137.566L48.2251 154.873C48.4796 155.119 48.7971 155.29 49.1425 155.366C49.4879 155.442 49.8477 155.422 50.1821 155.306C119.391 131.296 177.456 107.898 246.499 83.9081C246.809 83.7961 247.093 83.6204 247.331 83.3921C247.57 83.1638 247.758 82.888 247.883 82.5826C248.009 82.2772 248.069 81.9488 248.06 81.6188C248.05 81.2887 247.972 80.9643 247.83 80.6663L239.529 63.0664C239.33 62.644 238.983 62.3091 238.554 62.1252C238.124 61.9412 237.643 61.9208 237.199 62.068C226.549 65.5959 210.5 70.8479 200.828 74.2028" stroke="#1F1F1F" stroke-width="6" stroke-linecap="round" stroke-linejoin="round"/>
<path d="M56.6789 109.622L216.877 54.1332C217.288 53.9881 217.737 53.9881 218.148 54.1332L237.545 61.9879L38.8592 131.376" fill="#FCFCFC"/>
<path d="M56.6789 109.622L216.877 54.1332C217.288 53.9881 217.737 53.9881 218.148 54.1332L237.545 61.9879L38.8592 131.376" stroke="#1F1F1F" stroke-width="6" stroke-linecap="round" stroke-linejoin="round"/>
<path d="M191.981 62.7602C192.243 62.6723 192.521 62.6423 192.795 62.6722C193.07 62.702 193.335 62.7911 193.572 62.9333C195.403 63.9983 199.809 67.0004 200.295 71.5868C200.781 76.1732 198.385 80.633 195.462 83.8015C189.731 90.0188 180.898 92.515 172.411 92.9676C168.25 93.2388 164.072 92.9816 159.976 92.2021C155.11 91.2103 150.424 89.7658 145.511 90.1253C137.184 90.7377 129.722 94.878 123.671 100.296C115.51 107.619 109.2 117.564 98.5157 121.544C95.4004 122.702 91.6794 123.222 88.5974 121.398C84.65 119.061 83.1257 113.636 78.8188 111.892C74.512 110.148 70.1653 112.997 67.1898 115.413C62.8297 118.968 59.122 123.268 54.6354 126.663C50.8878 129.505 46.4744 131.709 41.6218 131.862C40.6764 131.941 39.7262 131.781 38.8593 131.396C38.1484 130.97 37.5516 130.378 37.1202 129.671C36.6888 128.964 36.4359 128.162 36.383 127.335C36.0702 124.187 40.2572 117.351 41.5419 115.354C41.7731 114.99 42.1203 114.716 42.5271 114.575L191.981 62.7602Z" fill="#FCFCFC" stroke="#1F1F1F" stroke-width="6" stroke-linecap="round" stroke-linejoin="round"/>
</svg>
