<svg width="165" height="163" viewBox="0 0 165 163" fill="none" xmlns="http://www.w3.org/2000/svg">
<path d="M158.274 110.256C146.066 145.261 102.928 167.542 63.6246 157.514C22.851 147.124 -0.722134 105.323 3.03169 71.5876C3.50538 67.3511 6.0839 48.1664 21.6399 32.6774C41.3028 13.1173 68.4733 14.7083 76.0703 15.0881C88.7573 15.7227 98.1285 19.2888 110.69 24.0705C126.331 30.0319 137.025 34.103 145.471 42.5089C162.019 58.9497 165.997 88.1178 158.274 110.256Z" fill="white"/>
<path fill-rule="evenodd" clip-rule="evenodd" d="M75.7631 17.7188C67.9032 17.3247 42.1211 16.0318 23.5044 34.5503C8.6024 49.3881 6.11246 67.8164 5.65797 71.8802M75.7631 17.7188L75.9384 17.7276L75.7631 17.7188ZM76.2023 12.4494C89.3101 13.105 99.0227 16.8021 111.482 21.545L112.064 21.7666C127.342 27.5893 138.496 31.8402 147.334 40.6347C164.759 57.947 168.748 88.2539 160.77 111.127C148.07 147.539 103.486 170.412 62.9722 160.075C20.8203 149.334 -3.48219 106.235 0.405586 71.2957L0.405743 71.2943C0.899066 66.8823 3.5673 46.9438 19.7756 30.8053L19.7764 30.8045C40.0641 10.6229 67.8825 12.0289 75.882 12.4333C75.9926 12.4388 76.0994 12.4442 76.2023 12.4494ZM75.9384 17.7276C88.1525 18.3385 97.1571 21.7468 109.749 26.54L75.9384 17.7276ZM109.749 26.54C125.53 32.5545 135.636 36.4489 143.607 44.3822L143.609 44.3838C159.28 59.9532 163.246 87.9825 155.78 109.387C144.062 142.983 102.371 164.674 64.278 154.954C24.8832 144.916 2.03877 104.413 5.65781 71.8816" fill="#1F1F1F"/>
<path d="M87.019 35.7613C82.6688 31.2713 79.6505 25.6617 78.3003 19.5574C77.1381 14.2248 77.2915 8.6894 78.7472 3.42934C74.6773 7.72654 72.2272 13.3045 71.8161 19.2088C71.1904 29.2503 76.9016 36.0518 78.0724 37.3835C59.7502 29.6435 49.7087 17.9352 51.7733 9.98958C52.1934 8.37634 53.4983 5.42244 58.6151 2.64282C49.1189 4.22479 46.4644 8.81875 45.9505 9.79296C41.8391 17.5419 48.0821 32.1371 64.6749 42.0892" fill="white"/>
<path fill-rule="evenodd" clip-rule="evenodd" d="M61.1138 1.78301C61.5337 3.00339 61.0106 4.34851 59.8765 4.96456C55.3844 7.4048 54.5614 9.76877 54.3305 10.6553C53.6446 13.2978 54.8748 17.2962 59.2134 21.9646C62.0772 25.046 66.0967 28.1824 71.1588 31.0546C69.8505 27.8261 68.8849 23.762 69.1788 19.0443L69.1801 19.025C69.6338 12.5095 72.3376 6.35418 76.8288 1.61213C77.6631 0.731177 78.9902 0.53166 80.0467 1.12834C81.1032 1.72502 81.6176 2.96454 81.2939 4.13394C79.953 8.97931 79.8114 14.0782 80.8813 18.9905C82.1262 24.6156 84.908 29.7848 88.9168 33.9225C89.9323 34.9706 89.9059 36.6435 88.8578 37.6589C87.8097 38.6744 86.1368 38.648 85.1213 37.5999C80.4306 32.7584 77.1761 26.7098 75.7203 20.1278L75.7186 20.1199C75.395 18.6351 75.166 17.1358 75.0312 15.6308C74.7364 16.8565 74.5419 18.1111 74.4528 19.3825C73.8987 28.339 79.0114 34.4494 80.0569 35.6386C80.8706 36.5641 80.9366 37.9291 80.2159 38.9287C79.4953 39.9282 78.1794 40.297 77.0442 39.8175C67.629 35.8401 60.1979 30.787 55.3423 25.5623C50.7617 20.6336 48.0323 15.0327 49.087 9.88029C48.5976 10.4469 48.367 10.8752 48.2876 11.0257L48.2847 11.0312C46.811 13.8089 46.9661 18.3983 49.8811 23.8729C52.7442 29.2502 58.0858 35.0557 66.0341 39.823C67.2856 40.5736 67.6916 42.1967 66.941 43.4482C66.1903 44.6997 64.5673 45.1057 63.3158 44.3551C54.6713 39.1703 48.595 32.7021 45.2163 26.3566C41.89 20.1094 40.979 13.5281 43.6148 8.55705C43.9953 7.83643 45.01 6.10931 47.3068 4.34856C49.5994 2.591 53.0504 0.890849 58.181 0.0361623C59.454 -0.17591 60.694 0.562637 61.1138 1.78301Z" fill="#1F1F1F"/>
<path d="M88.5073 35.5198C90.2368 35.5198 102.401 35.493 110.382 25.7598C113.704 21.6272 115.725 16.6025 116.192 11.321C117.027 13.3276 119.36 19.651 116.849 26.4257C113.72 34.836 104.421 40.4981 93.709 40.0959C98.1779 40.6768 120.79 43.1883 135.318 28.2669C137.87 25.6366 140.02 22.6446 141.7 19.3873C141.508 21.434 140.359 31.547 131.466 39.1306C122.386 46.884 111.942 46.2807 109.962 46.1154" fill="white"/>
<path fill-rule="evenodd" clip-rule="evenodd" d="M115.788 8.70962C116.99 8.52394 118.163 9.1825 118.631 10.3051C119.525 12.4515 122.202 19.5858 119.326 27.3442L119.325 27.3469C117.877 31.2407 115.313 34.5627 112.01 37.1144C119.265 35.8281 127.181 32.8359 133.424 26.4244C135.794 23.9811 137.791 21.2019 139.351 18.1764C139.931 17.0514 141.227 16.4957 142.442 16.8513C143.657 17.207 144.449 18.3741 144.331 19.6343C144.121 21.8699 142.882 32.8676 133.182 41.1401C123.279 49.5957 111.93 48.9313 109.742 48.7486C108.288 48.6271 107.207 47.3497 107.329 45.8954C107.45 44.4412 108.728 43.3607 110.182 43.4821C111.954 43.6301 121.492 44.1723 129.75 37.121L129.751 37.12C130.957 36.0919 132.006 35.012 132.92 33.9123C125.967 39.2146 118.019 41.6089 111.121 42.6098C102.745 43.8249 95.6999 43.0193 93.3682 42.7162C91.9678 42.5341 90.958 41.2831 91.0757 39.8757C91.1423 39.0787 91.5572 38.3911 92.1609 37.9543C90.3255 38.1622 89.008 38.1622 88.5176 38.1622H88.5071C87.0478 38.1622 85.8647 36.9791 85.8647 35.5198C85.8647 34.0604 87.0478 32.8774 88.5071 32.8774C90.181 32.8774 101.181 32.8027 108.331 24.0944C111.32 20.3709 113.139 15.8453 113.559 11.0886C113.666 9.87725 114.586 8.89529 115.788 8.70962ZM95.2155 37.4702C100.278 36.4369 107.157 33.8602 112.425 27.4354L112.442 27.4152C113.337 26.3013 114.146 25.1283 114.866 23.9067C114.733 24.4356 114.57 24.9695 114.371 25.5059C111.843 32.3009 104.38 37.3188 95.2155 37.4702Z" fill="#1F1F1F"/>
<path d="M92.8598 41.1996C90.2889 30.6288 91.8741 19.4744 97.2884 10.0384C97.5801 9.55203 97.706 8.98405 97.6472 8.41992C97.5884 7.85579 97.348 7.32602 96.9622 6.91026C96.9056 6.85067 96.8445 6.79258 96.7789 6.73597C95.7109 5.84221 93.9591 5.75283 92.4263 6.6466C92.0884 6.84699 91.801 7.12217 91.5862 7.45099C86.4693 15.1508 84.2394 23.9857 84.2394 23.9857C82.9354 29.9912 82.0544 36.0807 81.6028 42.2096" fill="white"/>
<path fill-rule="evenodd" clip-rule="evenodd" d="M91.0955 4.36431C93.3772 3.03385 96.3778 2.95501 98.4749 4.70991C98.4854 4.71871 98.4959 4.72759 98.5063 4.73655C98.6341 4.84694 98.7585 4.96483 98.8781 5.09071L98.8993 5.11328C99.6744 5.94854 100.157 7.01288 100.276 8.14625C100.393 9.26959 100.145 10.4005 99.5702 11.3719C94.5012 20.2168 93.0183 30.6694 95.4275 40.5756C95.7724 41.9936 94.9024 43.4227 93.4844 43.7676C92.0664 44.1124 90.6373 43.2425 90.2924 41.8245C87.5615 30.5957 89.2454 18.7471 94.9967 8.72377C94.9979 8.72169 94.9991 8.71961 95.0003 8.71753C94.9388 8.69274 94.8415 8.66679 94.6997 8.66264C94.4582 8.65556 94.1346 8.71733 93.7883 8.91204L93.7871 8.91389C91.3769 12.5409 89.6225 16.4765 88.4663 19.5394C87.8911 21.0631 87.4706 22.3528 87.1956 23.2554C87.0583 23.7064 86.9575 24.0595 86.8922 24.2957C86.8595 24.4138 86.8358 24.5026 86.8207 24.5596L86.8108 24.5973C85.5391 30.4656 84.6795 36.4158 84.2382 42.4041C84.131 43.8596 82.8642 44.9525 81.4088 44.8452C79.9534 44.738 78.8605 43.4712 78.9677 42.0158C79.4284 35.7637 80.3271 29.5517 81.6573 23.4254C81.6636 23.3966 81.6703 23.368 81.6775 23.3394L84.2396 23.9861C81.6775 23.3394 81.6776 23.339 81.6778 23.3385L81.6809 23.3262L81.6876 23.3001C81.6932 23.2785 81.701 23.2485 81.711 23.2104C81.7311 23.1342 81.7603 23.0256 81.7986 22.8871C81.8752 22.6101 81.9886 22.2129 82.1403 21.7152C82.4433 20.7206 82.9001 19.3204 83.522 17.673C84.7593 14.3954 86.6768 10.0668 89.3808 5.99611C89.8159 5.33346 90.3966 4.77878 91.0785 4.37431L91.0955 4.36431Z" fill="#1F1F1F"/>
<path d="M22.3953 48.2246C41.1644 45.0964 60.0497 41.9683 79.0735 42.1694C98.0973 42.3705 117.492 46.169 133.768 55.9959" fill="white"/>
<path fill-rule="evenodd" clip-rule="evenodd" d="M79.0455 44.8117C60.2927 44.6134 41.636 47.6967 22.8297 50.8311C21.3902 51.071 20.0287 50.0986 19.7888 48.6591C19.5489 47.2196 20.5213 45.8582 21.9608 45.6182C40.6928 42.4962 59.8066 39.3232 79.1014 39.5272C98.4264 39.7314 118.329 43.5878 135.133 53.7339C136.383 54.4882 136.784 56.1125 136.03 57.3618C135.275 58.6111 133.651 59.0123 132.402 58.258C116.655 48.7503 97.7682 45.0096 79.0455 44.8117Z" fill="#1F1F1F"/>
</svg>
