<svg width="47" height="47" viewBox="0 0 47 47" fill="none" xmlns="http://www.w3.org/2000/svg">
<path d="M46.1112 41.8291L45.1929 40.9104C44.6493 40.3668 44.6289 39.9232 44.6353 38.9722C44.6425 37.9076 44.6518 36.4493 43.2713 35.0687C41.8943 33.6918 40.4392 33.6918 39.3767 33.6918C38.4222 33.6918 37.9768 33.6688 37.4296 33.1216C36.8824 32.5741 36.8591 32.1291 36.8591 31.1741C36.8591 30.1117 36.8591 28.6565 35.4821 27.2796C34.108 25.9055 32.6561 25.903 31.5944 25.903C31.5922 25.903 31.5901 25.903 31.5879 25.903C31.1164 25.903 30.7718 25.8969 30.476 25.8255V17.9016C30.476 17.141 29.8592 16.5246 29.099 16.5246H21.175C21.1033 16.2281 21.0976 15.8824 21.0976 15.4101C21.0976 14.3462 21.0976 12.8889 19.7206 11.512C18.3437 10.1354 16.8885 10.1354 15.8264 10.1354C14.8715 10.1354 14.4261 10.1121 13.879 9.56487C13.3318 9.01767 13.3088 8.57339 13.3088 7.62063C13.3088 6.55959 13.3088 5.10625 11.9318 3.72929C10.5509 2.34839 9.09259 2.35771 8.02831 2.36524C7.07699 2.37134 6.63378 2.35126 6.09017 1.80765L5.17112 0.8886C4.30192 0.0193948 3.006 -0.238426 1.87001 0.232034C0.734019 0.702854 0 1.80119 0 3.03077V45.6232C0 46.3838 0.616404 47.0002 1.37696 47.0002H43.9694C45.199 47.0002 46.2977 46.2662 46.7682 45.1302C47.2386 43.9942 46.9808 42.6986 46.1112 41.8291ZM27.722 31.2839L15.7163 19.2599H27.722V31.2839ZM3.22402 2.83606L4.14271 3.75475C5.52325 5.1353 6.98161 5.12597 8.04624 5.1188C8.9972 5.11271 9.44077 5.13279 9.98438 5.6764C10.5316 6.2236 10.5545 6.66788 10.5545 7.62063C10.5545 8.68168 10.5545 10.135 11.9315 11.512C13.3084 12.8889 14.7636 12.8889 15.8261 12.8889C16.781 12.8889 17.226 12.9119 17.7735 13.4591C18.3207 14.0066 18.3437 14.4527 18.3437 15.4098C18.3437 15.754 18.344 16.1291 18.3867 16.5246H12.9624L2.75392 6.31575V3.03077C2.75392 2.78586 3.05082 2.66287 3.22402 2.83606ZM2.75392 10.2103L36.7899 44.2463H2.75392V10.2103ZM43.9694 44.2463H40.6845L30.4756 34.0378V28.6139C30.8704 28.6562 31.2448 28.6569 31.5876 28.6565C32.5425 28.6565 32.9878 28.6795 33.535 29.227C34.0822 29.7742 34.1052 30.2192 34.1052 31.1741C34.1052 32.2366 34.1052 33.6918 35.4821 35.0687C36.8591 36.4457 38.3142 36.4457 39.3767 36.4457C40.3313 36.4457 40.7766 36.4686 41.3238 37.0158C41.8674 37.5594 41.8879 38.0026 41.8814 38.954C41.8742 40.0186 41.8646 41.477 43.2455 42.8575L44.1641 43.7762C44.3373 43.9494 44.2147 44.2463 43.9694 44.2463Z" fill="#1F1F1F"/>
<path d="M7.80312 22.5643C7.26525 22.0264 6.39353 22.0264 5.85602 22.5643C5.31814 23.1018 5.31814 23.9739 5.85602 24.5114C6.39353 25.0493 7.26525 25.0493 7.80312 24.5114C8.341 23.9739 8.341 23.1018 7.80312 22.5643Z" fill="#1F1F1F"/>
<path d="M7.80277 30.8257C7.26525 30.2882 6.39354 30.2882 5.85566 30.8257C5.31815 31.3635 5.31815 32.2353 5.85566 32.7731C6.39354 33.3106 7.26525 33.3106 7.80277 32.7731C8.34064 32.2353 8.34064 31.3635 7.80277 30.8257Z" fill="#1F1F1F"/>
<path d="M16.0645 30.826C15.5266 30.2882 14.6549 30.2882 14.117 30.826C13.5795 31.3635 13.5795 32.2353 14.117 32.7731C14.6549 33.311 15.5266 33.311 16.0645 32.7731C16.602 32.2353 16.602 31.3635 16.0645 30.826Z" fill="#1F1F1F"/>
<path d="M7.80278 39.0874C7.26526 38.5495 6.39319 38.5495 5.85567 39.0874C5.3178 39.6249 5.3178 40.4966 5.85567 41.0345C6.39319 41.5724 7.26526 41.5724 7.80278 41.0345C8.34065 40.4966 8.34065 39.6249 7.80278 39.0874Z" fill="#1F1F1F"/>
<path d="M16.0641 39.0874C15.5266 38.5495 14.6549 38.5495 14.117 39.0874C13.5795 39.6249 13.5795 40.497 14.117 41.0345C14.6549 41.5724 15.5266 41.5724 16.0641 41.0345C16.602 40.497 16.602 39.6249 16.0641 39.0874Z" fill="#1F1F1F"/>
<path d="M24.3259 39.0867C23.7884 38.5492 22.9163 38.5492 22.3788 39.0867C21.8409 39.6246 21.8409 40.4963 22.3788 41.0342C22.9163 41.5717 23.7884 41.5717 24.3259 41.0342C24.8638 40.4963 24.8638 39.6246 24.3259 39.0867Z" fill="#1F1F1F"/>
<mask id="mask0" mask-type="alpha" maskUnits="userSpaceOnUse" x="0" y="0" width="48" height="48">
<path d="M46.1112 41.8291L45.1929 40.9104C44.6493 40.3668 44.6289 39.9232 44.6353 38.9722C44.6425 37.9076 44.6518 36.4493 43.2713 35.0687C41.8943 33.6918 40.4392 33.6918 39.3767 33.6918C38.4222 33.6918 37.9768 33.6688 37.4296 33.1216C36.8824 32.5741 36.8591 32.1291 36.8591 31.1741C36.8591 30.1117 36.8591 28.6565 35.4821 27.2796C34.108 25.9055 32.6561 25.903 31.5944 25.903C31.5922 25.903 31.5901 25.903 31.5879 25.903C31.1164 25.903 30.7718 25.8969 30.476 25.8255V17.9016C30.476 17.141 29.8592 16.5246 29.099 16.5246H21.175C21.1033 16.2281 21.0976 15.8824 21.0976 15.4101C21.0976 14.3462 21.0976 12.8889 19.7206 11.512C18.3437 10.1354 16.8885 10.1354 15.8264 10.1354C14.8715 10.1354 14.4261 10.1121 13.879 9.56487C13.3318 9.01767 13.3088 8.57339 13.3088 7.62063C13.3088 6.55959 13.3088 5.10625 11.9318 3.72929C10.5509 2.34839 9.09259 2.35771 8.02831 2.36524C7.07699 2.37134 6.63378 2.35126 6.09017 1.80765L5.17112 0.8886C4.30192 0.0193948 3.006 -0.238426 1.87001 0.232034C0.734019 0.702854 0 1.80119 0 3.03077V45.6232C0 46.3838 0.616404 47.0002 1.37696 47.0002H43.9694C45.199 47.0002 46.2977 46.2662 46.7682 45.1302C47.2386 43.9942 46.9808 42.6986 46.1112 41.8291ZM27.722 31.2839L15.7163 19.2599H27.722V31.2839ZM3.22402 2.83606L4.14271 3.75475C5.52325 5.1353 6.98161 5.12597 8.04624 5.1188C8.9972 5.11271 9.44077 5.13279 9.98438 5.6764C10.5316 6.2236 10.5545 6.66788 10.5545 7.62063C10.5545 8.68168 10.5545 10.135 11.9315 11.512C13.3084 12.8889 14.7636 12.8889 15.8261 12.8889C16.781 12.8889 17.226 12.9119 17.7735 13.4591C18.3207 14.0066 18.3437 14.4527 18.3437 15.4098C18.3437 15.754 18.344 16.1291 18.3867 16.5246H12.9624L2.75392 6.31575V3.03077C2.75392 2.78586 3.05082 2.66287 3.22402 2.83606ZM2.75392 10.2103L36.7899 44.2463H2.75392V10.2103ZM43.9694 44.2463H40.6845L30.4756 34.0378V28.6139C30.8704 28.6562 31.2448 28.6569 31.5876 28.6565C32.5425 28.6565 32.9878 28.6795 33.535 29.227C34.0822 29.7742 34.1052 30.2192 34.1052 31.1741C34.1052 32.2366 34.1052 33.6918 35.4821 35.0687C36.8591 36.4457 38.3142 36.4457 39.3767 36.4457C40.3313 36.4457 40.7766 36.4686 41.3238 37.0158C41.8674 37.5594 41.8879 38.0026 41.8814 38.954C41.8742 40.0186 41.8646 41.477 43.2455 42.8575L44.1641 43.7762C44.3373 43.9494 44.2147 44.2463 43.9694 44.2463Z" fill="black"/>
<path d="M7.80312 22.5643C7.26525 22.0264 6.39353 22.0264 5.85602 22.5643C5.31814 23.1018 5.31814 23.9739 5.85602 24.5114C6.39353 25.0493 7.26525 25.0493 7.80312 24.5114C8.341 23.9739 8.341 23.1018 7.80312 22.5643Z" fill="black"/>
<path d="M7.80277 30.8257C7.26525 30.2882 6.39354 30.2882 5.85566 30.8257C5.31815 31.3635 5.31815 32.2353 5.85566 32.7731C6.39354 33.3106 7.26525 33.3106 7.80277 32.7731C8.34064 32.2353 8.34064 31.3635 7.80277 30.8257Z" fill="black"/>
<path d="M16.0645 30.826C15.5266 30.2882 14.6549 30.2882 14.117 30.826C13.5795 31.3635 13.5795 32.2353 14.117 32.7731C14.6549 33.311 15.5266 33.311 16.0645 32.7731C16.602 32.2353 16.602 31.3635 16.0645 30.826Z" fill="black"/>
<path d="M7.80278 39.0874C7.26526 38.5495 6.39319 38.5495 5.85567 39.0874C5.3178 39.6249 5.3178 40.4966 5.85567 41.0345C6.39319 41.5724 7.26526 41.5724 7.80278 41.0345C8.34065 40.4966 8.34065 39.6249 7.80278 39.0874Z" fill="black"/>
<path d="M16.0641 39.0874C15.5266 38.5495 14.6549 38.5495 14.117 39.0874C13.5795 39.6249 13.5795 40.497 14.117 41.0345C14.6549 41.5724 15.5266 41.5724 16.0641 41.0345C16.602 40.497 16.602 39.6249 16.0641 39.0874Z" fill="black"/>
<path d="M24.3259 39.0867C23.7884 38.5492 22.9163 38.5492 22.3788 39.0867C21.8409 39.6246 21.8409 40.4963 22.3788 41.0342C22.9163 41.5717 23.7884 41.5717 24.3259 41.0342C24.8638 40.4963 24.8638 39.6246 24.3259 39.0867Z" fill="black"/>
</mask>
<g mask="url(#mask0)">
<path d="M54 57.5L-8.5 -5L9.5 -9.5L56 31.5L54 57.5Z" fill="#16AD60"/>
</g>
</svg>
